<svg xmlns="http://www.w3.org/2000/svg" xml:space="preserve" style="fill-rule:evenodd;clip-rule:evenodd;stroke-linejoin:round;stroke-miterlimit:2" viewBox="0 0 584 780"><path d="M512.649 75.006c9.549.045 28.171.178 29.715 5.557.823 2.865 2.77 39.925 3.291 44.9.177 1.685 1.998 1.962 2.541-.049.14-.516 3.395-22.515 4.815-33.004.411-3.034 1.638-2.388 3.697-1.384 21.186 10.324 34.275 28.848 38.529 37.597 5.77 11.866 6.624 14.766 8.622 24.811.864 4.347-1.481 3.652-11.367 5.04-3.962.556-1.284 2.138-1.096 2.194 1.054.314 10.228 1.594 11.12 1.719 1.059.147 6.062.845 13.095 2.703 4.255 1.123 3.217 5.493-.087 5.698-.996.061-205.538.032-206.035.022-4.933-.104-3.547-4.166-2.655-4.943.973-.848 10.161-2.779 16.751-3.87 9.899-1.638 10.3-1.621 10.302-2.495.001-1.055-1.402-1.216-7.411-1.828-1.89-2.014-1.958-1.95-2.04-2.174-.017-.046.218-.425.586-2.12 4.899-22.563 21.314-41.76 34.73-50.497 10.32-6.72 10.68-6.023 11.847-6.391.331 2.238 3.754 25.364 4.174 27.962.296 1.83-.005 2.646 1.843 2.402.903-.119.665-.556 1.4-10.382.241-3.226 1.586-36.355 2.018-36.823 4.157-4.498 23.938-4.681 31.615-4.645" style="fill:#f7b429" transform="translate(-966.24 -159.41)scale(2.45716)"/><path d="M483.136 104.45c-.176.853-4.049 19.46-4.544 19.481-.636.028 1.06-7.484.424-7.457.074-1.68.582-13.34 1.327-20.989 1.279-13.135.302-14.785 3.194-16.933 2.686-1.994 29.956-5.971 51.089-1.515.502 1.218.408 1.216.988 2.399.181.369 3.229 6.189 2.116 6.885-1.615 1.01-12.93-4.886-35.217-2.697-11.139 1.094-14.822 1.839-15.887 4.925-.425 1.231-.519 1.504-3.49 15.901" style="fill:#fad951" transform="translate(-966.24 -159.41)scale(2.45716)"/><path d="M1318 628c11.566 13.378 29.533 80.612 35 128.272l4-40.272s3.255-36.97 8-37 51.347 51.084 67 93 25.955 87.2-18 99.499h106.093c10.011 1.289 16.89-8.373 4-14.499-19.617-4.654-38.293-8.348-58.093-10-1.795-.423-6.843-3.276-1.017-5.055 6.728-2.055 20.738-3.032 25.276-4.125 6.481-1.562 5.702-4.036 4.779-12.055-3.04-26.396-29.311-75.544-39.038-86.765-22.634-26.112-73.998-85.094-92-86s-57.566-38.378-46-25" style="fill:#f3991e" transform="translate(-977.786 -611.164)"/><path d="M471.599 96.492c-1.167.368-1.527-.329-11.847 6.391-13.416 8.737-29.831 27.934-34.73 50.497-.368 1.695-.603 2.074-.586 2.12.082.224.15.16 2.04 2.174-5.088-.766-5.553-.925-5.889-1.262-2.175-2.181 4.984-25.651 14.724-38.054 5.325-6.781 13.826-17.891 32.371-27.466 4.134-2.135 3.37.998 3.917 5.6" style="fill:#fad951" transform="translate(-966.24 -159.41)scale(2.45716)"/><path d="M488.515 157.947c-24.9 1.215-24.891 1.084-35.015 1.836-.241.018-2.629.195-3-.283-1.133-1.465 1.738-2.067 1.964-2.114 4.791-1.004 30.085-4.823 40.015-5.25 15.766-.678 34.696-1.424 64.956 2.801.962.134.924.292 11.962 2.052 4.311.688 4.363.998 4.424 1.363.746 4.466-3.179-1.809-85.306-.405M530.36 132.341c-8.289 7.529-10.53 10.86-13.15 7.348-2.047-2.743 2.313-5.68 7.21-10.273 2.53-2.374 4.047-2.951 1.544-5.357-5.687-5.465-11.844-9.324-8.231-12.273 3.118-2.546 6.713 2.859 15.1 10.333 4.947 4.407 2.427 5.75-2.473 10.222M496.31 134.7c-6.926-6.583-10.059-7.862-5.046-12.463 8.965-8.23 12.018-12.623 15.025-10.446 3.658 2.648-2.093 6.425-8.142 12.378-2.375 2.338-.916 2.854 1.517 5.159 6.038 5.721 9.125 7.829 7.163 10.396-2.722 3.56-6.052-.838-10.517-5.024" style="fill:#172a54" transform="translate(-966.24 -159.41)scale(2.45716)"/><path d="M492.911 365.443c-.222-6.228.436-6.956-1.383-7.987-11.117-6.303-10.968-6.513-22.111-12.811-2.461-1.39-23.579-13.325-30.657-17.568-11.071-6.636-11.969-7.766-14.43-5.802-7.14 5.699-18.669 6.211-26.261-2.419-9.971-11.334-2.68-25.417 5.378-29.458 8.811-4.418 16.877-.436 17.161-.373 1.661.368 2.801-1.128 7.979-6.439 3.822-3.92 6.446-4.969 4.043-7.214-12.989-12.14-13.935-19.296-16.99-27.922-1.327-3.747-10.714-4.389-16.31-8.723-6.355-4.923-6.161-8.983-5.959-32.228.109-12.56 10.441-15.457 12.069-16.133 7.775-3.234 9.354-3.566 8.425-7.998-.469-2.24-6.689-.466-10.284-2.068-11.817-5.266-10.319-23.053 3.989-25.442 2.84-.474 2.469-2.365 2.816-4.378 1.288-7.48 5.83-19.986 8.721-25.198 12.849-23.163 23.365-31.123 40.102-41.28 9.047-5.489 10.793-3.341 13.643-8.306 4.917-8.566 10.379-8.083 19.609-9.463 24.161-3.611 48.365.995 51.088 2.164 7.534 3.235 6.801 8.736 11.155 10.634 8.382 3.653 25.644 10.683 42.616 33.597 12.962 17.501 16.001 35.476 16.563 38.805.741 4.383 2.632 2.752 7.615 5.071 4.355 2.027 8.439 8.448 6.659 14.904-3.179 11.53-14.861 9.72-15.679 9.742-.393.011-3.177.087-2.204 4.395 1.048 4.644 16.521 3.142 19.843 16.056.497 1.931 1.012 3.934.665 24.909-.234 14.151-15.591 16.275-20.388 18.798-2.792 1.468-2.372 7.516-7.603 16.349-8.657 14.618-12.917 12.867-12.264 15.833.047.214 10.246 11.126 12.045 11.615 1.071.291 11.609-5.507 21.033 2.268 16.51 13.621 2.533 41.315-20.144 32.216-4.313-1.73-4.135-4.767-8.138-2.4-6.789 4.015-63.387 36.159-63.889 37.273-.587 1.298-.237 1.332-.135 4.043.553 14.597-16.729 25.374-29.984 16.277-6.495-4.457-7.592-9.81-8.404-13.339m41.715-288.406c-21.133-4.456-48.403-.479-51.089 1.515-2.892 2.148-1.915 3.798-3.194 16.933-.745 7.649-1.253 19.309-1.327 20.989-.735 9.826-.497 10.263-1.4 10.382-1.848.244-1.547-.572-1.843-2.402-.42-2.598-3.843-25.724-4.174-27.962-.547-4.602.217-7.735-3.917-5.6-18.545 9.575-27.046 20.685-32.371 27.466-9.74 12.403-16.899 35.873-14.724 38.054.336.337.801.496 5.889 1.262 6.009.612 7.412.773 7.411 1.828-.002.874-.403.857-10.302 2.495-6.59 1.091-15.778 3.022-16.751 3.87-.892.777-2.278 4.839 2.655 4.943.497.01 205.039.039 206.035-.022 3.304-.205 4.342-4.575.087-5.698-7.033-1.858-12.036-2.556-13.095-2.703-.892-.125-10.066-1.405-11.12-1.719-.188-.056-2.866-1.638 1.096-2.194 9.886-1.388 12.231-.693 11.367-5.04-1.998-10.045-2.852-12.945-8.622-24.811-4.254-8.749-17.343-27.273-38.529-37.597-2.059-1.004-3.286-1.65-3.697 1.384-1.42 10.489-4.675 32.488-4.815 33.004-.543 2.011-2.364 1.734-2.541.049-.521-4.975-2.187-42.131-3.291-44.9-1.145-2.872-6.168-3.195-7.738-3.526" style="fill:#172a54" transform="translate(-966.24 -159.41)scale(2.45716)"/><path d="M497.524 248.039c5.401.212 21.822 1.516 49.953-1.727 9.461-1.091 12.368-3.211 12.46.148.191 6.973-4.059 30.131-5.744 31.728-.905.859-1.154.457-72.692.604-9.956.02-11.4.646-12.294-2.203-2.645-8.433-5.993-30.47-4.37-31.705 1.22-.928 6.177 1.581 32.687 3.155M506.962 341.512c-.285 2.116-.203 2.377-2.623 3.661-5.517 2.928-5.595 4.706-8.575 2.886-7.838-4.788-63.11-36.123-63.808-36.962-1.306-1.57.313-5.815-1.43-10.607-1.179-3.242-1.648-3.716.854-6.114 9.125-8.749 10.209-12.331 13.998-10.6 17.854 8.159 21.47 3.037 22.351 6.663 1.005 4.138-5.057 16.434 19.98 28.633 6.718 3.273 14.477 4.343 15.778 4.522 2.235.308 3.093-.412 3.431 1.824.187 1.238.061 1.234.044 16.094M517.1 327.5c.04-1.922.009-1.913.043-2.076.6-2.882 7.14-.564 19.556-6.511 22.321-10.691 19.726-22.864 19.722-27.414-.003-3.824 3.849-1.912 11.146-3.77 11.72-2.985 12.447-5.947 15.112-3.426 5.405 5.114 5.148 5.314 10.548 10.481 3.203 3.064.194 4.005-.404 8.769-.358 2.855-.052 5.725-.061 5.961-.088 2.116-2.773 2.899-5.07 4.294-5.161 3.132-24.31 14.062-26.431 15.273-24.005 13.702-23.865 13.879-25.988 14.999-8.279 4.372-8.453 5.87-10.626 4.233-2.912-2.193-2.932-2.104-6.19-3.733-1.697-.848-1.376-1.393-1.357-17.08M457.045 246.51c.537 26.844 7.884 32.202 2.406 31.382-.067-.01-6.854-1.938-9.101-3.097-4.464-2.303-15.931-7.637-22.876-24.283-3.971-9.514-3.245-16.006-3.278-54.011-.013-14.229-.24-14.813 1.217-15.246.51-.152 11.486-.202 12.174.02 1.361.439 1.211.99 1.189 21.225-.027 24.766-1.031 28.349 6.359 35.377 5.836 5.55 11.295 3.654 11.768 6.54.113.69.029 1.403.142 2.093M567.033 251.459c.204-4.298.223-7.203.625-7.869.457-.758 3.622-1.566 3.954-1.65 1.326-.339 9.264-2.364 12.645-11.526 2.027-5.493.767-29.696 1.044-46.924.049-3.049 2.766-2.338 9.199-2.341 3.892-.002 5.385-.559 5.392 3.347.014 7.732-.025 18.792-.025 20.004.001 2.801.031 2.763.03 14 0 13.493 2.761 37.355-19.63 52.642-7.87 5.373-15.794 7.09-17.005 6.739-2.579-.748 1.608-1.855 3.771-26.422" style="fill:#fdfefe" transform="translate(-966.24 -159.41)scale(2.45716)"/><path d="M515.538 313.949c-9.674.674-19.773-2.028-20.585-3.707-.37-.766-.773-5.58.404-5.994 1.638-.576 19.717 3.904 36.053-1.049 1.149-.348 6.501-1.418 12.118-4.635 1.193-.683 1.386-1.304 2.319-.281 1.052 1.156-4.505 6.559-10.53 9.891-9.011 4.983-16.834 5.497-19.779 5.775" style="fill:#fcfdfe" transform="translate(-966.24 -159.41)scale(2.45716)"/><path d="m543.454 288.759.855.775c-.128.247.174.587.045.834-.076.147-7.361 3.261-8.969 3.758-1.468.454-10.016 3.098-18.877 3.525-7.958.384-20.695-.859-21.58-2.431-.285-.504-.881-5.165.538-5.78 1.968-.855 37.927.375 47.988-.681" style="fill:#fcfdfd" transform="translate(-966.24 -159.41)scale(2.45716)"/><path d="M610.199 230.502c-.021-17.061-.021-17.039-.01-22.004.018-8.043-.645-10.955 2.207-9.721 5.788 2.504 7.862 3.129 7.942 7.725.359 20.735.004 21.358-.906 22.955-1.168 2.05-7.593 4.413-7.959 4.401-2.007-.067-1.054-1.08-1.274-3.356" style="fill:#fcfdfe" transform="translate(-966.24 -159.41)scale(2.45716)"/><path d="M413.884 229.503c.106 2.614.706 5.508-3.217 3.612-5.069-2.45-6.804-2.986-6.888-7.619-.387-21.189-.205-21.4.984-22.783 1.385-1.611 5.178-3.184 5.666-3.386 2.348-.974 3.494-1.376 3.516 1.142.005.562-.056 26.711-.061 29.034" style="fill:#fdfdfe" transform="translate(-966.24 -159.41)scale(2.45716)"/><path d="M519.442 267.144c-2.881.321-12.527 2.087-24.911-1.747-3.924-1.215-3.581-5.22.971-4.93 4.263.271 19.643 2.182 33.096-3.757.963-.425 6.929-4.839 9.458-.949 3.565 5.487-12.205 9.825-12.51 9.904-.096.025-.095.024-6.104 1.479" style="fill:#172a54" transform="translate(-966.24 -159.41)scale(2.45716)"/><path d="M1201 936.852v64.296c0 9.301-7.617 16.852-17 16.852s-17-7.551-17-16.852v-64.296c0-9.301 7.617-16.852 17-16.852s17 7.551 17 16.852" style="fill:#fad951" transform="matrix(1 0 0 1.00877 -977.517 -620.091)"/><path d="M1192.333 940.407v54.289a7.82 7.82 0 0 1-7.814 7.815 7.82 7.82 0 0 1-7.814-7.815v-54.289a7.82 7.82 0 0 1 7.814-7.815 7.82 7.82 0 0 1 7.814 7.815" style="fill:#fdf397" transform="translate(-977.786 -611.164)"/><path d="m1167 943.782-9.585 2.167c-4.204.951-8.397-1.661-9.356-5.829-.959-4.169 1.676-8.325 5.881-9.275l54.865-12.406c4.205-.951 8.397 1.661 9.356 5.83.96 4.168-1.676 8.324-5.88 9.275l-11.298 2.554q.017.375.017.754v64.296c0 9.301-7.617 16.852-17 16.852s-17-7.551-17-16.852z" style="fill:#fad951" transform="matrix(1 0 0 1.00877 -806.797 -620.091)"/><path d="M1192.333 941.232v52.639c0 4.768-3.501 8.64-7.814 8.64s-7.814-3.872-7.814-8.64v-52.639c0-4.768 3.501-8.64 7.814-8.64s7.814 3.872 7.814 8.64" style="fill:#fdf397" transform="matrix(1 0 0 .90445 -807.553 -515.37)"/><path d="M511.479 354.128c1.004.05 9.04.447 9.386 8.352.513 11.723-16.85 12.185-17.66 1.041-.579-7.956 7.285-9.232 8.274-9.393M407.46 313.56c-9.102-7.511-.111-18.852 8.136-15.262 11.367 4.949 3.153 22.02-8.136 15.262M604.53 301.523c8.055-9.33 17.588-.236 15.623 6.89-3.382 12.269-22.56 5.931-15.623-6.89" style="fill:#f3991e" transform="translate(-966.24 -159.41)scale(2.45716)"/></svg>
