<?xml version="1.0" encoding="UTF-8" standalone="no"?>
<!DOCTYPE svg PUBLIC "-//W3C//DTD SVG 1.1//EN" "http://www.w3.org/Graphics/SVG/1.1/DTD/svg11.dtd">
<svg width="100%" height="100%" viewBox="0 0 238 333" version="1.1" xmlns="http://www.w3.org/2000/svg" xmlns:xlink="http://www.w3.org/1999/xlink" xml:space="preserve" xmlns:serif="http://www.serif.com/" style="fill-rule:evenodd;clip-rule:evenodd;stroke-linejoin:round;stroke-miterlimit:2;">
    <g transform="matrix(1,0,0,1,-587.004519,-123)">
        <g transform="matrix(1,0,0,1,1.004519,0)">
            <g transform="matrix(1.013953,0,0,0.996454,-10.330233,0.588652)">
                <path d="M669.982,344.743L669.982,457.032L597,457.032C592.098,457.032 588.124,452.988 588.124,448L588.124,166C588.124,161.012 592.098,156.968 597,156.968L639.408,156.968L639.408,175.032L605.876,175.032L605.876,438.968L633.491,438.968L633.491,380.772C638.788,361.802 652.662,348.079 669.982,344.743ZM633.491,329.258L633.491,217.181L775.509,217.181L775.509,254.313L669.982,254.313L669.982,302.13C662.624,303.896 656.43,306.763 651.207,310.242C643.274,315.526 637.571,322.336 633.491,329.258ZM769.592,156.968L812,156.968C816.902,156.968 820.876,161.012 820.876,166L820.876,247.463L803.124,265.527L803.124,175.032L769.592,175.032L769.592,156.968ZM685.761,438.968L803.124,438.968L803.124,336.43L820.876,318.366L820.876,448C820.876,452.988 816.902,457.032 812,457.032L685.761,457.032L685.761,438.968Z" style="fill:rgb(19,36,92);"/>
            </g>
            <g transform="matrix(1.037736,0,0,1.025641,-24.490566,-3.74359)">
                <path d="M724.164,146L751.571,146C753.464,146 755,147.554 755,149.469L755,181.531C755,183.446 753.464,185 751.571,185L652.429,185C650.536,185 649,183.446 649,181.531L649,149.469C649,147.554 650.536,146 652.429,146L679.836,146C679.836,133.623 689.768,123.575 702,123.575C714.232,123.575 724.164,133.623 724.164,146ZM702,134.787C695.884,134.787 690.918,139.812 690.918,146C690.918,152.188 695.884,157.212 702,157.212C708.116,157.212 713.082,152.188 713.082,146C713.082,139.812 708.116,134.787 702,134.787Z" style="fill:rgb(19,36,92);"/>
            </g>
            <path d="M692.5,333.964C655.08,331.325 640.968,343.348 632,360.21C631.892,355.124 638.143,305.977 692.5,309.962L692.5,291.5L733.5,321.5L692.5,351.5L692.5,333.964Z" style="fill:rgb(254,100,0);"/>
            <g transform="matrix(0.707107,-0.707107,0.707107,0.707107,9.274229,652.639358)">
                <g transform="matrix(1.035641,0,0,1.023093,311.07672,-46.160899)">
                    <rect x="428" y="344" width="72" height="16" style="fill:rgb(254,100,0);"/>
                </g>
                <g transform="matrix(0,-0.521752,1.023093,0,402.485343,545.560758)">
                    <rect x="428" y="344" width="72" height="16" style="fill:rgb(254,100,0);"/>
                </g>
            </g>
        </g>
    </g>
</svg>
