<svg xmlns="http://www.w3.org/2000/svg" xml:space="preserve"
     style="fill-rule:evenodd;clip-rule:evenodd;stroke-linejoin:round;stroke-miterlimit:2" viewBox="0 0 396 474"><path d="M134.47 403.852c1.13-2.367.754-2.368 1.243-4.859 1.38-7.028.667-6.988.407-14.087-.533-14.52 7.533-21.62 8.174-22.472 1.689-2.245 1.713-34.216 11.04-42.868.477-.443 4.684-4.345-1.46-8.003-15.81-9.413-13.769-14.267-13.774-37.717-.002-10.337-2.203-9.883-4.365-19.954-1.391-6.481-1.054-6.448-2.372-12.873-.355-1.731-9.926-5.1-14.546-2.515-13.235 7.406-17.934 5.195-24.559 10.578-2.358 1.916-13.385 10.874-37.254 7.363-26.479-3.895-24.054-12.577-39.848-18.515C3.684 232.864-1.118 209.76.215 189.721c1.833-27.552 30.262-19.53 28.376-26.824-.667-2.579-7.118-27.532 9.676-31.867 18.539-4.785 14.377 18.618 17.202 28.362 5.509 19.003 10.695 17.971 14.3 19.009 15.6 4.495 24.607 14.342 24.841 14.485 10.463 6.381 3.412-26.338 43.068-26.231 5.396.015-1.074-14.807 9.449-23.624 3.986-3.339 5.067-3.531 3.615-9.515-1.037-4.273-10.858-4.383-10.681-19.815.31-27.049 11.515-23.699 13.065-26.724 3.771-7.36-12.493-1.596-12.096-13.025.315-9.06 10.671-10.397 10.721-10.414 3.328-1.183 4.334-11.036 8.702-18.49 18.563-31.683 36.906-29.683 42.148-36.961 9.73-13.508 44.872-6.928 56.548-2.802 9.828 3.473 7.282 7.646 11.915 11.224 16.008 12.36 31.515 18.34 36.366 62.086.423 3.816 12.51 5.921 9.313 15.303-2.41 7.072-9.532 4.999-10.887 5.339-5.117 1.286 3.612 4.582 6.817 9.979 4.444 7.483.27 24.77-.234 26.859-.81 3.354 5.067 2.378 7.637 3.204 23.03 7.4 18.557 26.925 19.064 37.508.235 4.899 13.145 6.075 15.418 28.135.543 5.275 3.579 5.325 14.174 15.64 9.909 9.648 12.314 18.405 20.128 26.534 18.089 18.817-5.321 45.008-7.91 47.904-33.174 37.114-45.688 27.706-48.937 30.674-8.785 8.024-2.176 14.463-13.333 19.061-13.775 5.677-21.51-2.126-20.351 2.685 6.262 26.006 1.298 27.393 4.686 31.163 9.844 10.952 7.489 19.015 12.127 25.262-.317 4.74.401 4.547 1.652 9.119l.627 2.444.188 2.231 1.601 9.252.229 2.444c.646 10.969 2.045 10.554 7.038 20.376 4.463 15.99 2.066 18.093-7.603 20.544-36.185 9.171-59.972-5.312-64.407-8.012-9.862-6.005-5.312-8.881-7.918-20.065-1.012-6.489-.873-6.381-1.589-12.806l-.169-3.588c-.257-5.843-.514-11.868-.558-12.9.191-2.348-.021-8.48-.047-9.217 1.962-19.549 3.93-19.48 3.19-21.011-12.44-25.705-5.071-32.648-10.267-31.32-15.036 3.844-15.099 3.607-30.458 1.992-2.819-.296-2.529 6.643-3.961 13.941-2.135 10.88-7.047 11.133-2.341 19.066 4.354 7.338 3.756 14.368 6.208 17.373-.579 2.966.387 8.584.514 9.32.628 6.58.637 6.452 1.409 12.966l.085 3.248c-.29 7.061-.313 6.926-.461 14.013.053 1.013.511 9.863-.848 12.65-2.273 4.66-45.915 16.273-81.291 12.253-16.739-1.902-15.629-6.26-15.853-17.51 1.78-4.353 4.202-12.096 16.129-19.864 2.803-1.953 2.817-1.728 5.679-3.664 2.506-2.925 1.219-3.352 1.755-14.081 1.163-8.705.807-9.054.797-9.185Z" style="fill:#15274c"/>
    <path d="M301.323 248.106c2.944-1.7 3.405-1.662 3.729-1.636 2.751.226-4.64 16.501-5.256 17.857-3.133 6.898-2.374 7.83-9.119 11.333.311-4.031 9.54-17.799 10.646-27.554"
          style="fill:#eaeff5"/>
    <path d="M263.429 182.142c.875.206.792 1.914 1.667 2.12 1.279.301 1.347-2.259 16.419.52 5.81 1.071-2.274 5.533-5.065 32.923-3.508 34.424.102 41.475-25.675 49.185-.542-12.665-.68-12.591-.758-21.098-.278-30.44-11.835-25.858-42.213-27.837-14.15-.922-14.029-1.033-28.07-1.973-29.111-1.95-23.738 26.584-23.15 45.019-13.146-6.206-10.456-15.457-13.058-12.197-.35.439.52 1.177.246 1.666-.374.666-1.458.656-1.899 1.279-.219.309.419.81.2 1.119-.201-1.039-3.826-17.001-3.832-29.289-.023-51.4 28.529-55.206 32.308-56.728 5.602-2.255-4.835 12.832-.236 28.71.434 1.497-2.504 11.061 49.199 12.659 27.375.846 25.998-5.49 43.918-26.076Z"
          style="fill:#f4f8fb"/>
    <path d="M263.429 182.142c1.129-1.21 10.277-11.013 15.739-13.416 3.687-1.622 28.402 7.785 21.895 11.099-25.477 12.977-22.469 71.75.26 68.282-1.106 9.756-10.335 23.523-10.646 27.554-12.382 4.357-11.737 5.728-12.824 6.052-8.178 2.438-20.326 2.772-22.108 2.821-5.126.141-4.228-6.824-4.971-17.645 25.778-7.709 22.167-14.761 25.675-49.185 2.791-27.39 10.875-31.852 5.065-32.923-15.072-2.778-15.14-.219-16.419-.52-.875-.206-.792-1.914-1.667-2.12Z"
          style="fill:#c1cdd9"/>
    <path d="M181.235 185.979c.131.795-2.127.571-1.996 1.366.74 4.477 13.62 11.227 28.553 12.005 28.401 1.479 41.761-11.001 42.122-10.896.763.221.972 1.413 1.736 1.634-3.445 4.338-3.227 4.36-6.955 8.432-11.471 12.529-63.709 1.66-66.19.706-9.971-3.832-4.428-33.606 1.387-32.246 6.727 1.573-4.976 6.428 1.343 19Z"
          style="fill:#cfdce4"/>
    <path d="M181.235 185.979c5.133 5.414 8.37 5.482 16.138 6.74 48.592 7.864 56.944-16.093 62.025-17.707 12.249-3.89.528 4.708-7.747 15.075-.763-.221-.972-1.413-1.736-1.634-.361-.104-13.721 12.376-42.122 10.896-14.934-.778-27.814-7.528-28.553-12.005-.131-.795 2.127-.571 1.996-1.366Z"
          style="fill:#afc0cd"/>
    <path d="M142.072 252.866c.219-.309-.419-.81-.2-1.119.441-.623 1.526-.614 1.899-1.279.275-.489-.596-1.227-.246-1.666 2.602-3.26-.088 5.991 13.058 12.197.813 14.008 1.016 13.975 1.031 15.193.019 1.467-1.035 1.5-1.188 1.505-8.11.259-13.801-22.604-14.355-24.831Z"
          style="fill:#ccd6df"/>
    <path d="M181.153 262.521c1.649-.448 1.553-.449 3.288-.557 7.325.243 7.271.516 10.522.094.907-.118 12.8 3.175 19.002 1.023 9.001 10.578 5.608 12.064 7.182 25.887-.604-.56-1.611-.534-2.215-1.093-.729-.675 1.003-3.677-1.752-3.413-8.157.782-35.772-1.385-39.738-2.297-2.654-.61-2.194.856-2.938 1.147l-1.121-9.416c.259-.581 1.211-.637 1.471-1.218.624-1.398-.548-1.742.929-3.75 2.49-3.385 2.09-3.637 5.37-6.407"
          style="fill:#f9c526"/>
    <path d="M234.737 234.112c-1.276 7.985-1.518 46.094 4.085 54.181 5.284 7.627-11.768 5.943-12.802 4.671-4.866-5.982 3.831-17.613-8.931-31.905-4.31-4.827-5.128-3.863-25.681-5.435-12.466-.954-14.11-1.569-20.797 8.985-3.996 6.307 5.086 30.855-3.46 21.85-5.4-5.69-7.813-52.212-2.121-60.165 4.254-5.944 5.89-4.531 60.303-1.231 1.941.118 17.016-.003 12.002 4.65-1.951 1.811-1.526 2.02-2.597 4.398Z"
          style="fill:#f6c53c"/>
    <path d="M164.525 279.756c-3.386-14.669-4.151-46.959.504-53.461 4.254-5.944 5.89-4.531 60.303-1.231 1.941.118 17.016-.003 12.002 4.65-.626.581-1.008.997-1.272 1.373-4.965-.349-58.82-4.12-62.634-3.974-3.998.153-6.424 5.24-8 8s-.902 44.644-.902 44.644Z"
          style="fill:#f7e886"/>
    <path d="M224.501 281.608c2.709-1.915 9.525-9.183 9.926-13.495.035-.374.084-.493.144-.407.672 9.122 1.982 17.314 4.25 20.587 5.284 7.627-11.768 5.943-12.802 4.671-2.208-2.715-1.623-6.594-1.518-11.357Z"
          style="fill:#f19026"/>
    <path d="M215.342 243.434c-.434 7.801-3.579 7.931-28.568 5.9-.639-.052-12.429 1.195-9.971-10.417 1.205-5.692 7.536-4.186 28.643-3.073 8.457.446 8.871 1.651 9.895 7.59Z"
          style="fill:#162440"/>
    <path d="M174.504 283.312c.744-.29.285-1.757 2.938-1.147 3.966.912 31.581 3.079 39.738 2.297 2.755-.264 3.752-.196 3.752.413 0 2.607.02 2.703.215 4.093.036.255 1.731 5.072-1.628 4.971-10.273-.308-41.475-2.863-43.075-4.041-1.704-1.256-1.833-5.875-1.94-6.585Z"
          style="fill:#eb912a"/>
    <path d="M243.713 234.188c.521 3.984-.014 3.984 2.165 50.183.213 4.522-2.912 5.033-5.03 1.018-2.569-4.871-6.721-62.668 1.923-53.533.138.146.07.173.942 2.331Z"
          style="fill:#e89332"/>
    <path d="M181.153 262.521c-3.28 2.77-2.88 3.022-5.37 6.407-1.478 2.008-.305 2.352-.929 3.75-.259.581-1.211.637-1.471 1.218-.244-4.592-2.105-5.75 5.631-13.7 1.739-1.787 2.15-1.881 31.162.628 2.524.218 3.681 2.151 3.79 2.257-6.202 2.152-18.095-1.141-19.002-1.023-3.251.422-3.197.149-10.522-.094-2.128-.728-2.122-.875-2.294-.785-.492.26-.502 1.082-.995 1.342"
          style="fill:#f7e886"/>
    <path d="M181.153 262.521c.492-.26.502-1.082.995-1.342.172-.091.166.057 2.294.785-1.735.108-1.64.108-3.288.557Z"
          style="fill:#f7da59"/>
    <path d="M183.314 245.343c-1.685-.636-2.268-.038-2.711-1.808-1.265-5.058.958-5.095 6.17-4.695 22.386 1.719 23.835.093 24.771 3.379 1.809 6.348-5.53 4.821-28.23 3.124"
          style="fill:#7dacc0"/>
    <path d="M307.239 466.087c-18.059 1.48-30.532 2.639-50-9.204-6.162-3.749-2.789-6.738-1.63-6.135 10.353 5.391 16.012 12.858 52.686 9.634 5.152-.453 14.712-4.371 14.173.503-.449 4.061-12.293 4.729-15.229 5.202"
          style="fill:#99abbd"/>
    <path d="M285.824 445.274c2.291 3.129 4.228 2.401 10.837 2.638 8.241.295 12.817-1.113 13.884-1.441 4.471-1.376 3.886 2.657 8.303 7.321-3.123.571-24.092 4.402-39.626 2.045-.985-.149-4.773-2.932 6.603-10.563Z"
          style="fill:#bac8d3"/>
    <path d="M272.137 436.366c2.913-1.603 25.685-14.134 41.481 2.59l-.516.932c-21.706-3.354-28.331 2.081-33.681 6.234-2.976-5.423-3.605-4.862-7.284-9.756"
          style="fill:#c3cfd8"/>
    <path d="M272.137 436.366c3.679 4.893 4.308 4.333 7.284 9.756-5.15 6.74-4.405 9.329-8.488 7.761-7.447-2.859-11.3-3.738-6.519-10.169 3.112-4.186 7.02-6.866 7.723-7.348"
          style="fill:#92a4b3"/>
    <path d="M285.824 445.274c12.946-5.977 32.424-5.234 34.591 6.206.309 1.63-.235 1.416-1.567 2.311-4.417-4.664-3.832-8.697-8.303-7.321-1.067.328-5.643 1.737-13.884 1.441-6.609-.237-8.546.492-10.837-2.638Z"
          style="fill:#f5f8fa"/>
    <path d="M263.166 397.398c13.243 16.08 31.964 12.596 37.862-8.067 2.27-7.953 13.944 38.414 11.884 39.839-1.982 1.371-20.188-14.348-46.478 3.954-1.381-3.086-3.88-5.647-4.765-19.009-.754-11.386.974-15.48 1.497-16.718Z"
          style="fill:#f5f9fc"/>
    <path d="M263.166 397.398c-.522 1.237-2.251 5.331-1.497 16.718.885 13.362 3.384 15.922 4.765 19.009-9.174 8.75-8.866 13.613-12.469 9.752-2.708-2.902 4.367-1.019 5.451-7.684 1.216-7.477-2.184-12.566-4.858-12.619-5.748-.113-3.783-2.753-3.895-8.451-.479-24.156 1.933-24.698 3.891-24.417 6.184.887 5.743 2.043 8.613 7.692Z"
          style="fill:#c4d1dc"/>
    <path d="M256.156 431.644c-.302 5.993-2.809 3.958-2.912 3.602-.305-1.063-.949-7.709.014-8.442.359-.273 1.954-1.212 2.898 4.84"
          style="fill:#a9b9cb"/>
    <path d="M267.529 373.255c9.796-15.59 31.379-6.031 27.14 15.249-.854.527-8.928 7.532-17.66 2.958-4.915-2.575-7.65-10.479-7.826-12.498-.099-1.137.309-2.38-.161-3.42-.529-1.171-1.267-.231-1.99-1.34-.383-.587.87-.379.498-.951Z"
          style="fill:#f3f8fa"/>
    <path d="M267.529 373.255c.372.571-.88.363-.498.951.723 1.109 1.461.169 1.99 1.34.47 1.04.062 2.283.161 3.42.176 2.019 2.912 9.923 7.826 12.498 8.732 4.574 16.805-2.431 17.66-2.958-6.965 24.887-38.305 9.237-27.14-15.249Z"
          style="fill:#c1cdd9"/>
    <path d="M271.014 330.108c2.68 4.19 5.727 15.187 17.634 19.177 2.104.705 2.099.547 4.167-.533 2.982 15.88 2.858 16.807 1.516 16.737-.776-.04-7.511-8.545-19.932-5.327-15.393 3.988-13.373 20.552-17.505 20.482-7.877-.133-13.32-24.134-9.969-29.309 2.009-3.102 2.179-2.801 4.741-5.491 10.715-11.192 16.393-13.786 19.349-15.736Z"
          style="fill:#e8eff4"/>
    <path d="M258.66 379.241c-.482.891-1.025 1.415-1.768 1.403-7.877-.133-13.32-24.134-9.969-29.309 2.009-3.102 2.179-2.801 4.741-5.491q1.015-1.06 1.972-2.021c.504 8.496 1.784 26.074 5.024 35.418"
          style="fill:#c1cdd6"/>
    <path d="M271.014 330.108c.212-.112 7.187-4.686 8.797-2.098 2.649 4.26 1.726 5.125 8.435 9.334 3.165 1.986 3.721 7.994 4.569 11.408-2.067 1.08-2.062 1.238-4.167.533-11.906-3.99-14.953-14.987-17.634-19.177"
          style="fill:#c5d1dc"/>
    <path d="M116.142 457.359c1.257-3.783 2.516-2.193 6.432-1.65 30.393 4.215 53.081-2.35 70.08-5.159 7.007-1.158 11.025-4.551 9.587 1.033-1.085 4.21-35.475 10.418-52.89 11.184-31.205 1.372-32.445-2.826-33.208-5.407Z"
          style="fill:#97a9b9"/>
    <path d="M165.625 434.144c4.046 2.472 18.789 14.158 14.094 14.901-1.864.295-18.77 2.973-23.357 3.318-2.36.178-3.788-5.389-4.986-7.592-.262-.482-.6-.921-.862-1.403 7.878-4.076 7.587-4.427 15.111-9.225Z"
          style="fill:#95a7b6"/>
    <path d="M132.103 434.208c14.064-6.882 19.808-6.148 33.521-.064-7.523 4.798-7.232 5.15-15.111 9.225-3.864-4.587-6.882-6.335-17.544-8.188z"
          style="fill:#ccd9e2"/>
    <path d="M146.059 443.141c1.284 1.234 2.518 1.902 4.532 7.201.866 2.28-.727 6.092-30.484.247 2.01-2.856 1.959-2.781 3.951-5.712l1.975-.938c5.776.551 14.385 2.704 20.026-.798"
          style="fill:#b5c4ce"/>
    <path d="M146.059 443.141c-5.64 3.502-14.25 1.349-20.026.798l-1.975.938c-1.993 2.931-1.941 2.856-3.951 5.712-6.944-2.844 5.923-11.406 6.107-11.511 7.02-4.005 18.473 3.2 19.845 4.062Z"
          style="fill:#f6f9fb"/>
    <path d="M172.172 395.016c1.588-2.827.806-3.985 4.083-4.276 16.322-1.448 16.165-2.768 17.57-2.554 4.186.636 13.916 50.032 4.62 55.125-9.921 5.435-13.648-.455-23.597-10.114 1.043-1.302 4.962-6.194 4.987-20.245.034-18.916-5.017-17.094-7.664-17.935Z"
          style="fill:#c4d0db"/>
    <path d="M172.172 395.016c2.646.841 7.698-.981 7.664 17.935-.025 14.051-3.944 18.943-4.987 20.245-17.356-12.392-24.363-9.291-33.694-9.259-1.714.006-3.235-.892.298-21.424.912-5.301 16.45 15.514 30.719-7.497"
          style="fill:#f3f8fb"/>
    <path d="M198.454 425.815c3.945 18.188-11.691 17.599-13.07 7.035-1.046-8.009 6.969-16.745 13.07-7.035"
          style="fill:#16284c"/>
    <path d="M195.494 427.903c2.145 9.102-4.945 10.724-6.511 4.95-1.036-3.822 2.491-11.428 6.511-4.95"
          style="fill:#99adbe"/>
    <path d="M166.233 371.774c-.928 1.133-1.361.37-2.231 1.433-.059.073-.069.084.101 1.169 1.947 12.442-10.009 19.463-17.219 16.674-2.563-.991-2.026.824-2.621 1.066-7.371-25.091 12.16-35.146 21.97-20.343Z"
          style="fill:#f4f8fb"/>
    <path d="M166.233 371.774c10.171 19.145-10.487 40.302-21.97 20.343.595-.242.058-2.057 2.621-1.066 7.21 2.789 19.166-4.233 17.219-16.674-.17-1.085-.16-1.096-.101-1.169.87-1.063 1.304-.301 2.231-1.433Z"
          style="fill:#c4d0db"/>
    <path d="M177.678 344.737c9.052 3.779 8.827 4.288 18.535 5.852 5.283.852-.742 24.408-3.841 26.952-4.286 3.518-14.958.867-16.218.554 1.023-1.398 4.935-6.741 4.334-21.221-.449-10.831-3.586-9.661-3.597-10.553-.007-.59.795-.995.787-1.585Z"
          style="fill:#c0cdd9"/>
    <path d="M177.678 344.737c.007.59-.795.995-.787 1.585.011.892 3.148-.278 3.597 10.553.601 14.48-3.31 19.823-4.334 21.221-2.287-2.377-5.253-18.679-19.756-19.294-7.667-.325-5.214-3.807-3.868-11.369.319-1.793 4.424-24.864 6.959-21.675 4.91 6.176 2.44 8.641 18.189 18.979"
          style="fill:#f5f9fc"/>
    <path d="M186.281 334.002c-21.756-20.339-25.171-18.617-26.646-29.718-2.128-16.022 11.997 15.724 98.408.841 14.018-2.414 18.144-5.524 16.339-.907-2.051 5.246-1.771 5.259-2.916 10.696-.696 3.304-26.16 5.586-37.192 28.882-.571 1.205-2.407 5.082-15.937 4.898-19.873-.269-31.92-14.569-32.056-14.692"
          style="fill:#e4ebf1"/>
    <path d="M253.151 305.93q2.406-.377 4.892-.806c8.01-1.38 12.79-2.986 15.079-3.249.532.046.989.091 1.353.129.449.288.392.971-.093 2.212-2.051 5.246-1.771 5.259-2.916 10.696-.696 3.304-26.16 5.586-37.192 28.882-.571 1.205-2.407 5.082-15.937 4.898-19.873-.269-31.92-14.569-32.056-14.692a365 365 0 0 0-3.932-3.622l-.921-1.267c7.812 5.239 19.601 11.136 37 8s33.242-24.694 34.724-31.183Z"
          style="fill:#899bab;fill-opacity:.5"/>
    <path d="M330.343 303.131c-5.775 5.957-4.641 6.873-10.797 12.294-5.53 4.871-13.926 10.406-14.597 10.875-1.927-1.508-13.176-10.308-19.789-23.323-1.009-1.986-2.79-5.491 18.752-20.582 5.284-3.702 19.869 4.351 26.431 20.735Z"
          style="fill:#f5f9fb"/>
    <path d="M330.343 303.131c.123.451 6.512 12.075-6.112 21.566-13.152 9.888-15.393 4.452-19.282 1.603.671-.469 9.067-6.004 14.597-10.875 6.156-5.422 5.022-6.338 10.797-12.294"
          style="fill:#c1cdda"/>
    <path d="M298.963 333.454c2.182-4.084 3.292-1.435 7.283.808.425.239 7.721 4.339.883 6.023-9.386 2.312-8.279-5.987-8.166-6.831"
          style="fill:#abbbcc"/>
    <path d="M277.475 313.572c.092-.538 1.016-5.964 2.071-6.506 1.894-.973 5.12 5.918 5.408 6.533 1.917 4.095-6.263 11.561-7.479-.027"
          style="fill:#bfcdd9"/>
    <path d="M291.194 321.452c4.286 4.411 6.384 3.999 4.95 7.108-2.441 5.293-4.169 3.864-5.599 3.106 1.194-8.249-.974-8.031-.867-8.724.108-.7 1.407-.79 1.515-1.49Z"
          style="fill:#9db0c3"/>
    <path d="M289.669 286.731c-.263.298-6.791 7.687-4.844 1.118.872-2.942 3.385-4.914 8.354-6.779.189-.071 4.957-.322.475 2.474-.346.216-.235.257-3.984 3.187Z"
          style="fill:#e1e7ed"/>
    <path d="M291.194 321.452c-.108.7-1.407.79-1.515 1.49-.107.693 2.061.475.867 8.724-.473-.387-4.757-3.898-4.23-6.359.938-4.374 1.577-6.886 4.878-3.855"
          style="fill:#c4d2df"/>
    <path d="M317.773 334.766c8.713-4.287.226 4.868-2.445 4.922-3.762.075 2.103-4.646 2.445-4.922"
          style="fill:#a0aec4"/>
    <path d="M333.245 293.493c-.182-.247-5.791-9.738-15.846-15.608-4.748-2.772-10.051-2.353-9.416-5.274 2.672-12.284 29.515 6.913 35.801 26.833 5.989 18.977-2.01 18.487-2.728 18.75-7.646 2.792 3.05-7.064-7.812-24.701Z"
          style="fill:#a4b5c4"/>
    <path d="M385.505 252.801c2.625 3.7 2.6 3.66 3.882 8.111-2.365 1.829-2.724 1.661-3.008 4.598-1.624 16.745-30.243 41.767-37.272 44.567-.487-4.304.092-6.444-4.282-16.496 8.507-3.519 22.403-17.008 24.157-18.71 9.396-9.12 7.658-11.446 16.524-22.07Z"
          style="fill:#c0cdd7"/>
    <path d="M385.505 252.801c-8.865 10.624-7.128 12.95-16.524 22.07-1.754 1.703-15.65 15.191-24.157 18.71-4.749-8.599-3.94-9.137-10.934-16.058-11.918-11.793-18.811-10.967-19.632-11.925-2.555-2.984 47.168-40.342 71.247-12.796Z"
          style="fill:#f4f9fb"/>
    <path d="M389.386 260.912c1.343 11.479-8.757 31.993-38.029 52.248-2.273 1.573-1.982-.338-2.251-3.084 7.029-2.8 35.648-27.822 37.272-44.567.285-2.936.643-2.768 3.008-4.598Z"
          style="fill:#eaf0f4"/>
    <path d="M352.403 217.58c1.317-2.606 2.654-1.73 9.513 5.045 6.907 6.823 14.218 15.975 11.779 15.627-5.632-.803-5.655-3.607-23.185-.142-.545-1.078-2.56-1.057-.186-7.548 3.861-10.553 4.413-10.615 3.772-11.655-.376-.61-1.316-.716-1.693-1.326Z"
          style="fill:#f7fbfc"/>
    <path d="M352.403 217.58c.376.61 1.316.716 1.693 1.326.642 1.041.089 1.102-3.772 11.655-2.375 6.491-.359 6.47.186 7.548-8.379 2.429-8.24 2.504-16.389 5.513-1.719.635-9.009-2.204-1.366-5.186 12.526-4.887 18.715-18.763 19.648-20.857Z"
          style="fill:#c2d0dc"/>
    <path d="M297.424 192.984c19.922-27.474 54.7-10.305 50.136 18.77-2.346.38-6.24 3.923-6.775 4.292-15.811 10.876-33.542 1.888-38.564-8.701-3.425-7.221-2.66-12.981-2.663-12.987-.406-.742-1.728-.632-2.134-1.375Z"
          style="fill:#f5f9fb"/>
    <path d="M297.424 192.984c.406.742 1.728.632 2.134 1.375.003.006-.761 5.766 2.663 12.987 5.022 10.589 22.753 19.577 38.564 8.701.536-.369 4.429-3.912 6.775-4.292-.2.586-2.712 13.981-15.705 20.282-24.234 11.753-47.272-14.402-34.431-39.053"
          style="fill:#c0ccd8"/>
    <path d="M182.689 157.293c-.738-1.866-4.503-11.394-3.519-24.835.454-6.202 14.616 3.841 54.373 4.313 14.351.17 15.571-1.106 15.958 1.509.066.448-.49 8.129-2.52 16.178-1.167 4.626-1.392 4.467-3.54 8.76-1.477-.212-1.321-.546-2.892-.416-15.443 1.276-34.45-1.912-37.407-2.409-13.444-2.256-13.413-2.055-16.496-3.009-2.095-.648-2.02-.786-2.208-.791-.996-.023-.689.724-1.75.699Z"
          style="fill:#f5f9fc"/>
    <path d="M271.321 102.092c.808-4.548-.329-6.726 4.333-6.301 20.948 1.908 22.429 1.985 21.595 3.524-1.543 2.849-12.724-3.912-16.044 20.197-3.491 25.341 7.999 26.938 6.289 30.509-8.931 18.653-35.263 18.265-38.683 18.214-.648-.01-1.729-.629 1.938-7.866 1.437-.083 1.368.336 2.722-.156 17.862-6.492 20.584-9.675 24.736-53.523.141-1.49.413-2.392-6.886-4.598"
          style="fill:#c1ced9"/>
    <path d="M271.321 102.092c7.3 2.206 7.028 3.108 6.886 4.598-4.152 43.849-6.874 47.031-24.736 53.523-1.354.492-1.285.074-2.722.156 6.571-19.19 2.052-23.282 6.023-24.783 12.68-4.794 11.688-7.501 14.549-33.494"
          style="fill:#f5f9fc"/>
    <path d="M174.461 146.369c1.716 9.35 4.995 13.505.798 11.231-23.834-12.914-17.952-39.702-14.807-69.543.46-4.365 1.307-5.415 5.416-3.85 4.76 1.814-9.354 32.656 4.821 41.935 5.697 3.73 2.715 5.386 3.773 20.226Z"
          style="fill:#f4f8fa"/>
    <path d="M226.626 141.007c7.364-1.031 8.358 2.613 4.2 8.69-16.435 24.025-48.973-5.718-36.979-8.622 6.482-1.569 6.75 5.628 32.779-.068"
          style="fill:#162446"/>
    <path d="M298.217 115.038c-4.96 16.387-2.122 16.983-.358 24.378.241 1.009-11.17 8.922-10.547-11.686.898-29.733 13.804-19.415 13.881-18.668.055.531.085.818-2.976 5.977Z"
          style="fill:#e1e9ef"/>
    <path d="M182.689 157.293c1.061.025.753-.722 1.75-.699.188.004.113.142 2.208.791 3.083.954 3.051.754 16.496 3.009 2.957.496 21.965 3.685 37.407 2.409 1.572-.13 1.415.203 2.892.416-4.144 6.628-5.761 4.557-18.109 3.266-2.71-.283-25.15-2.629-33.788-4.27-5.396-1.025-7.223-1.258-8.855-4.922Z"
          style="fill:#c3cfda"/>
    <path d="M306.044 134.759c-10.181 15.99-6.272-30.029.806-21.935 5.082 5.812-.204 20.286-.806 21.935"
          style="fill:#a8b9c8"/>
    <path d="M147.513 105.57c.12-.655 1.212-6.592 2.137-8.041 2.013-3.152 3.013-.662 2.979-.17-.132 1.958-1.608 23.788-2.208 24.436-4.472 4.833-3.006-14.91-2.909-16.225Z"
          style="fill:#f3f7fb"/>
    <path d="M213.608 148.224c11.681-1.569 11.776-1.907 12.59-1.304 4.216 3.126-13.751 11.686-19.554 6.532-3.847-3.417 6.277-5.112 6.964-5.228"
          style="fill:#f5d045"/>
    <path d="M204.154 174.908c-.549-.231-14.068-5.921-5.66-4.844 27.721 3.55 27.909 2.711 30.091 3.773 3.008 1.464-2.188 7.618-24.431 1.071"
          style="fill:#dbe3ec"/>
    <path d="M201.738 183.004c-3.428-2.676-3.717-2.314-4.309-3.873-.96-2.528 3.24-.546 3.495-.426 7.354 3.471 22.467 3.306 24.44 3.284 8.782-.096-6.793 10.289-23.626 1.015"
          style="fill:#e2eaf0"/>
    <path d="M195.643 112.476c-.168.913-2.039 11.064-8.647 7.741-6.791-3.415-4.766-31.332 6.756-25.159 4.714 2.525 1.96 16.627 1.891 17.418"
          style="fill:#f1d962"/>
    <path d="M236.023 113.011c-2.412 1.367-7.74 6.846-8.875 1.982-1.962-8.41 19.537-13.808 22.407-.053.11.529-.145 7.414-6.756.012-2.161-2.419-6.214-2-6.775-1.941Z"
          style="fill:#f4df6c"/>
    <path d="M191.733 115.033c-7.147 6.982-5.832-17.424-.137-16.915 2.543.227 2.229 11.165.137 16.915"
          style="fill:#fdf18d"/>
    <path d="M56.766 176.994c10.285 18.158.671 25.243 2.461 30.275 11.206 31.504-31.278 30.066-26.528 25.99.622-.533 26.256-.416 22.576-17.727-.899-4.23-2.152-4.334-.301-8.175 4.267-8.852-3.652-9.507-.661-18.941 2.642-8.332-5.592-15.55-.833-14.861 1.23.178.956.497 3.285 3.439Z"
          style="fill:#abbcca"/>
    <path d="M21.849 233.823c-23.338-7.857-14.505-64.136-12.674-50.013.554 4.273.894 4.122 2.373 8.179 1.261 3.458-6.663 9.535 2.997 21.422 2.132 2.623-2.354 11.195 6.559 18.189 1.016.797.672.917.745 2.223"
          style="fill:#e6eef4"/>
    <path d="M35.35 204.897c-11.78 1.078-17.142 1.396-18.635 1.485-5.517-12.78 8.339-13.196 13.486-13.804 5.433-.641 4.294 3.683 5.149 12.319"
          style="fill:#e0e9ef"/>
    <path d="M44.182 137.037c-2.209 5.218.709 14.675-2.439 20.593-5.263.026-5.236.103-5.684.028-5.15-.868-6.079-22.134 8.123-20.621"
          style="fill:#d1dee6"/>
    <path d="M31.765 181.488c-.663.232-.965 1.105-1.627 1.337-.812.285-.829-.396-10.563 2.008-3.787.935-2.892 2.15-3.795 2.821-.903-1.4-1.107-1.245-1.489-2.81-2.883-11.798 10.226-12.231 13.515-12.651 5.199-.663 3.845 2.081 3.959 9.294Z"
          style="fill:#e3edf3"/>
    <path d="M41.654 174.785c1.199.845 9.518 4.653 7.27 11.42-1.559 4.692-12.408 1.634-12.263-1.191.576-11.278.71-11.675 1.656-11.732l3.338 1.503Z"
          style="fill:#a6b6c4"/>
    <path d="M38.632 220.057c-.068.025.17.701-8.477 2.462-2.875.586-7.959 1.263-8.654 1.355-3.495-7.808 2.211-8.922 9.915-10.277 6.659-1.171 5.95 1.498 7.215 6.46Z"
          style="fill:#dce8f0"/>
    <path d="M48.703 196.818c8.015 12.002-9.497 12.832-9.253 8.059.239-4.683.498-4.598-.141-9.33-.101-.752.702-5.677 9.394 1.271"
          style="fill:#9daebb"/>
    <path d="M38.632 220.057c.168 4.371 1.642 5.976-2.698 6.808-8.121 1.557-9.661 3.866-14.432-2.99.695-.092 5.779-.77 8.654-1.355 8.647-1.762 8.409-2.438 8.477-2.462Z"
          style="fill:#b7c7d3"/>
    <path d="M42.373 216.387c-.284-1.889-1.411-4.021 2.977-3.43 11.343 1.528-1.864 17.514-2.225 10.605-.19-3.623.037-3.562-.752-7.176Z"
          style="fill:#a4b4c1"/>
    <path d="M44.182 137.037c3.621 2.472 3.353 4.606 3.914 16.404.18 3.786-5.464 3.966-6.353 4.188 3.147-5.918.229-15.375 2.439-20.593Z"
          style="fill:#afc2ce"/>
    <path d="M35.35 204.897c-.682 2.917-1.198 2.694-4.086 3.211-8.234 1.473-10.198 5.478-14.549-1.726 1.493-.089 6.855-.406 18.635-1.485"
          style="fill:#b9c7d2"/>
    <path d="M31.765 181.488c.377 4.191.615 4.222.407 4.52-1.009 1.437-1.354.771-4.39 1.202-7.158 1.016-8.72 3.238-12.002.445.903-.671.008-1.886 3.795-2.821 9.734-2.404 9.752-1.723 10.563-2.008.663-.232.965-1.105 1.627-1.337Z"
          style="fill:#b9c8d4"/>
    <path d="M44.05 161.168c2.598-.946 2.536-2.248 5.019-1.007.549.274.911.455 2.551 7.234 1.631 6.742-17.216.539-16.762-4.593.066-.744.369-.772 9.192-1.633Z"
          style="fill:#9caebe"/>
    <path d="M79.566 224.837c8.618-29.595-7.403-36.702-2.592-36.983.522-.031 8.829 4.916 11.542 7.744 15.293 15.938 11.827 28.115 10.815 35.079-6.532 1.269-18.312-5.06-19.765-5.84"
          style="fill:#f4f8fb"/>
    <path d="M72.04 187.494c24.482 40.307-20.409 69.316-35.813 55.739-6.827-6.017 28.58 8.475 35.601-29.063 2.893-15.469-9.063-29.789-3.112-29.181 1.023.105.828.342 3.324 2.505"
          style="fill:#9badbc"/>
    <path d="M79.566 224.837c1.452.78 13.233 7.109 19.765 5.84-2.516 6.532-4.481 12.376-15.33 17.657-4.182-3.991-4.913-1.207-10.633-.831-6.191.406-6.604 1.625-11.75-1.88 6.717-4.47 12.103-7.217 17.947-20.786Z"
          style="fill:#c2cfdb"/>
    <path d="M61.619 245.623c5.146 3.505 5.559 2.286 11.75 1.88 5.72-.375 6.451-3.16 10.633.831-3.913 1.261-8.64 4.23-30.361 1.861-4.512-.492 4.53-3.042 7.979-4.572Z"
          style="fill:#e7edf3"/>
    <path d="M123.992 205.883c14.182 22.633-19.698 32.526-20.037 32.346-3.868-2.053 8.703-5.218.469-29.581.488.3 1.211-.563 1.7-.263 1.426.877 2.948 5.343 3.119 5.845 1.84 5.4 10.453.262 11.889-2.441 1.147-2.159.125-2.438 1.251-4.573.325-.616 1.284-.717 1.609-1.334Z"
          style="fill:#bfcdd9"/>
    <path d="M123.992 205.883c-.325.616-1.284.717-1.609 1.334-1.126 2.135-.104 2.413-1.251 4.573-1.436 2.703-10.049 7.841-11.889 2.441-.171-.502-1.693-4.968-3.119-5.845-.488-.3-1.211.563-1.7.263-3.081-6.16-5.388-9.383-2.841-10.38 15.389-6.024 20.826 5.374 22.409 7.615Z"
          style="fill:#f3f8fb"/>
    <path d="M130.957 227.635c.096.117 1.072.14 1.304 1.589.845 5.273-4.397 3.807-3.386 1.646.543-1.162 1.539-2.073 2.082-3.235"
          style="fill:#aebfd2"/>
    <path d="M135.943 192.988c-.762.347-6.52 2.967-8.119 6.603-.108.245.52.445.412.69-9.921-13.267-20.607-8.138-19.53-11.727 4.757-15.85 41.263-21.287 34.185-10.222-3.624 5.665-6.498 13.439-6.948 14.656"
          style="fill:#f5f9fb"/>
    <path d="M135.943 192.988c-3.058 13.026-3.279 18.034-4.799 13.999-1.306-3.466-1.067-3.502-2.908-6.706.108-.245-.52-.445-.412-.69 1.599-3.636 7.357-6.256 8.119-6.603"
          style="fill:#bfceda"/>
    <path d="M302.501 149.949c1.065.699 19.619 9.709 11.768 23.869-8.539 1.212-7.689-2.026-15.452-5.982-5.444-2.775-12.586-3.998-11.222-6.089 3.321-5.093 4.085-4.508 7.453-10.823 3.92-.5 5.089-.252 7.454-.975Z"
          style="fill:#f08e26"/>
    <path d="M302.501 149.949c1.168-.603 5.949-3.073 16.395 1.097 8.08 3.225 9.502 16.224 9.099 19.914-.109.995-.957 1.812-1.065 2.807-6.392-.657-6.318-.533-12.661.051 7.852-14.16-10.703-23.17-11.768-23.869"
          style="fill:#fac62a"/>
    <path d="M302.501 149.949c-2.366.722-3.535.474-7.454.975 2.093-3.852 23.705-12.632 34.092 1.532 4.874 6.646 4.589 22.037 2.723 22.405-.397.078-.65.128-4.932-1.093.109-.995.957-1.812 1.065-2.807.403-3.69-1.02-16.688-9.099-19.914-10.446-4.17-15.227-1.701-16.395-1.097Z"
          style="fill:#faeb7f"/>
    <path d="M153.096 282.812c.376 4.218 2.678 10.728.446 15.456-1.055 2.235-.128 4.339-.215 6.34-1.198-.663-1.564-.876-2.391-1.978-6.951-9.258-5.129-21.856-5.031-24.242 3.322 1.997 5.187 3.507 7.191 4.424"
          style="fill:#efa736"/>
    <path d="M319.096 251.961c-4.625 3.483-4.387 3.571-8.717 7.45-4.099 3.672-.973-2.064 2.473-14.833 1.466-5.433 2.995-5.129 8.347-3.444 1.619.51 5.72 5.676 4.355 6.687-.493.365-.478.307-6.459 4.141Z"
          style="fill:#eb9f39"/>
    <path d="M159.153 153.117c6.872 7.385 8.297 7.535 6.977 8.813-2.495 2.416-3.573.276-14.331 6.847-2.385-1.21-2.532-1.076-2.569-1.304-.1-.612.689-6.24 1.583-8.056 3.839-7.799 6.362-6.392 8.341-6.3Z"
          style="fill:#ed9d2a"/>
    <path d="M159.153 153.117c-1.979-.093-4.502-1.499-8.341 6.3-.894 1.816-1.682 7.444-1.583 8.056.037.228.185.094 2.569 1.304-5.054 2.642-5.364-.282-5.462-5.99-.156-9.119 3.952-13.995 4.617-14.815 4.05-4.998 4.452-.08 8.199 5.146Z"
          style="fill:#f7df70"/>
    <path d="M248.9 9.258c8.251 2.376 9.319 2.852 10.092 3.197 4.644 2.071.022 2.816-4.077 5.828-8.495 6.244-13.959 28.626-13.53 30.162 2.043 7.319 7.003-20.108 20.348-26.769 5.754-2.872 37.611 16.51 38.969 58.15.183 5.602-16.448-1.601-20.417-1.22-10.903 1.045 25.666 9.206 28.777 11.076 5.797 3.484-3.88 2.336-4.265 2.29-28.372-3.367-154.063-15.934-155.38-16.926-8.017-6.038 26.835-5.214 15.113-8.952 4.736-11.08 7.948-23.133 21.806-34.764 6.498-5.454 5.571-6.616 6.281-6.482 1.177.221 1.47 2.209 2.648 2.43-.269 1.292-2.801 13.441-2.619 16.282.606 9.453 6.24-12.64 6.701-14.119.724-.058.977 1.314 2.135-.171 1.327-1.702 1.411-1.633 1.505-2.158.249-1.383.846-.957 1.299-2.264 4.333-12.493 20.799-12.045 22.188-12.139 1.406-.095 12.459-.845 17.606.74.618.191.796 1.112 1.4 1.345.244.094 2.925-1.781 3.42-5.536"
          style="fill:#f4ac29"/>
    <path d="M245.257 14.666a1 1 0 0 0 .223.129c.244.094 2.925-1.781 3.42-5.536 8.251 2.376 9.319 2.852 10.092 3.197 3.266 1.456 1.95 2.257-.544 3.651l-.021.007a.2.2 0 0 0-.069.043c-1.034.578-2.26 1.258-3.442 2.127-8.321 6.116-13.735 27.718-13.549 30.042-.255.904-1.123 3.867-.939-2.212.154-5.081 1.711-22.469 4.83-31.447Zm11.861 10.367c1.415-1.37 2.95-2.525 4.615-3.356 5.754-2.872 37.611 16.51 38.969 58.15.183 5.602-16.448-1.601-20.417-1.22-10.141.972 20.791 8.101 27.664 10.597 1.335 1.193 2.107 2.082 2.452 2.733-1.422.533-5.361.065-5.603.036-8.422-.999-25.417-2.809-45.19-4.886 1.603-.401 8.517-5.263 12.819-8.973 4.493-3.875 4.376-12.63 3-25s-17.299-27.768-18-28a3 3 0 0 0-.309-.08Z"
          style="fill:#f08e26"/>
    <path d="M235.941 72.279c-40.407-6.37-60.523-3.006-61.859-4.344-7.718-7.731 71.761-3.062 93.138 7.508 9.885 4.888-3.709 1.088-31.279-3.164"
          style="fill:#202636"/>
    <path d="M248.9 9.258c-.495 3.756-3.176 5.63-3.42 5.536-.604-.233-.781-1.155-1.4-1.345-5.147-1.586-16.2-.836-17.606-.74-1.389.094-17.855-.354-22.188 12.139-.454 1.308-1.051.881-1.299 2.264-.095.526-.179.457-1.505 2.158-1.158 1.485-1.41.113-2.135.171l4.311-10.186c4.773-10.122 9.322-16.627 45.242-9.996Z"
          style="fill:#f7da60"/>
    <path d="M195.265 27.278c-1.177-.221-1.47-2.209-2.648-2.43-.71-.133.217 1.028-6.281 6.482-13.858 11.631-17.07 23.684-21.806 34.764-3.22-.234-4.975.583-4.205-2.553 2.426-9.874 8.383-19.32 9.359-20.867 8.096-12.836 23.873-22.058 25.251-22.566 2.742-1.011 1.951 1.164.328 7.169Z"
          style="fill:#f7db66"/>
    <path d="M229.802 41.406c2.086 2.849 7.209 6.805 1.333 11.436-.771.608-8.698 6.855-10.602 6.179-6.236-2.211 9.9-8.613 6.781-12.862-1.119-1.525-6.748-7.063-4.005-9.245 2.404-1.912 5.551 3.27 6.493 4.491Z"
          style="fill:#1e2641"/>
    <path d="M209.082 43.676c-5.203 6.289 6.766 9.494 3.106 13.63-2.652 2.996-14.416-10.205-9.655-14.342 10.666-9.269 12.12-7.577 12.496-6.515 1.331 3.766-1.024 3.046-5.947 7.227"
          style="fill:#20273f"/></svg>
