<svg xmlns="http://www.w3.org/2000/svg" xml:space="preserve"
     style="fill-rule:evenodd;clip-rule:evenodd;stroke-linejoin:round;stroke-miterlimit:2" viewBox="0 0 390 476"><path d="M503.818 907.729c.626-1.857-.217-1.976 3.224-24.275.057-.369-4.397-19.919 6.593-28.782 1.317-1.062 4.806-2.753 5.626-4.304 8.548-16.179 7.028-17.18 19.112-30.987.626-.716 4.219-1.454 1.087-11.888-2.076-6.917-13.047-45.755-16.731-42.695-12.149 10.091-13.152 10.388-23.263 11.482-2.055.222-16.879 17.168-53.842-2.998-9.821-5.358-8.792-11.572-19.167-12.392-.976-.077-10.511.868-16.789-6.53-5.632-6.638-.267-11.546-1.429-17.814-1.187-6.403 3.681-10.826 2.003-11.723-1.788-.956-19.272-6.079-15.255-17.161 4.865-13.422 32.679 2.216 38.506 2.194 9.239-.034 8.936 1.529 18.039 3.37 3.258.658 6.829-2.565 25.806 4.722 16.971 6.516 17.353 12.298 20.017 10.338 7.893-5.81 6.266-7.079 6.617-8.696 5.485-25.291 34.071-22.806 37.561-22.503 2.75.239 6.866-3.272 5.777-4.442-5.685-6.104-6.82-5.323-9.85-13.129-1.242-3.199-.242-4.101-4.765-6.412-10.66-5.449-10.875-27.674-2.049-34.401 7.535-5.742-3.094-3.37-6.76-6.658-3.325-2.982-3.074-9.69 1.866-12.071 3.959-1.909 5.075-1.336 6.599-7.514 8.376-33.96 27.282-37.343 32.606-45.668 7.289-11.398 49.5-13.606 58.14-1.993 3.326 4.471 26.503 11.131 35.475 41.68.981 3.339 1.319 8.319 2.924 9.028 1.95.862 6.302 1.481 7.842 7.025 2.083 7.499-9.469 8.148-9.594 9.983-.359 5.246 10.393 3.651 9.281 23.953-.036.649-.244 4.453-1.775 7.927-1.077 2.444-2.459 3.798.275 3.824 25.15.24 31.104 5.953 31.082 31.281-.005 6.141.008 6.279 3.581 11.215 11.446 15.811 1.312 20.535 7.713 29.496 1.542 2.159 6.203 8.685 15.142 29.492 6.667 15.517-2.225 32.853-23.72 42.403-4.266 1.895-4.857 1.832-5.657 6.418-4.395 25.201-38.911 14.864-38.921 18.963-.001.48 8.12 22.188 8.297 32.99.072 4.347 2.438 2.93 5.031 6.378 7.876 10.473 12.528 26.024 15.546 31.516l-.046 1.081 1.187 2.226c-.058.354-.643.425 1.664 9.853l.348 2.986c.055 5.064.4 5.061-.773 9.93l1.267 3.103c1.412 3.235 1.33 3.166 2.919 6.209 1.619 5.54 4.296 13.029-2.603 15.96-9.235 3.923-37.799 5.391-48.95 2.323-17.911-4.93-9.369-16.596-13.997-29.582l-2.137-7.959c-.321-1.792-1.171-5.203-1.202-5.357-.119-.598-1.586-5.842-1.915-9.221-.537-5.499-2.67-9.239-.753-21.404.207-1.314-7.33-10.384-12.741-28.129-1.876-6.155 1.202-9.253-2.456-8.347-21.741 5.387-24.536-1.379-26.499 1.795-15.598 25.234-19.782 23.147-19.047 25.591.576 1.915 2.526 2.19 6.401 28.209.031 1.933-.065 5.839-.611 13.861-.038.255-.054.228-.688 3.15-.417 5.479.91 5.278 1.761 10.787 0 7.481 2.384 11.296-8.352 13.657-39.809 8.754-56.572 6.912-71.963 1.573-4.223-1.466-3.105-2.665-3.585-7.086l.786-5.057 1.202-3.813c1.907-4.213 1.596-5.063 8.873-11.846 8.468-5.869 11.762-5.312 9.498-11.132.112-.304.856-2.309.611-4.003" style="fill:#14264b" transform="translate(-461.02 -651.213)scale(1.16894)"/>
    <path d="M669.456 953.04c17.078-1.936 19.436-4.295 19.309-.538-.212 6.298-32.313 6.955-42.217 5.588-16.039-2.214-14.499-11.234-11.95-9.946 8.646 4.373 10.012 6.24 34.858 4.896"
          style="fill:#94a7b8" transform="translate(-461.02 -651.213)scale(1.16894)"/>
    <path d="M652.223 939.041c20.428-7.538 35.439.857 34.692 6.543-.348 2.655-26.869 5.139-39.363 3.559-3.476-.44-3.671-4.859 4.671-10.102"
          style="fill:#ced9e1" transform="translate(-461.02 -651.213)scale(1.16894)"/>
    <path d="M649.407 928.225c1.609-.532 11.541-3.821 21.164-.946 5.206 1.556 11.583 7.215 10.763 8.134-2.379 2.663-4.529-6.878-28.569.54-1.536-3.98-1.469-3.92-3.358-7.728"
          style="fill:#c1cfdb" transform="translate(-461.02 -651.213)scale(1.16894)"/>
    <path d="M645.508 930.509c1.266 3.956 1.183 3.902 3.159 7.456-3.711 3.809-3.737 3.747-6.37 8.409-.277.489-1.691 2.994-6.753-1.925-1.176-1.143.702-7.302 9.964-13.94"
          style="fill:#b2c1ce" transform="translate(-461.02 -651.213)scale(1.16894)"/>
    <path d="M649.407 928.225c1.889 3.808 1.822 3.748 3.358 7.728l-4.098 2.012c-1.976-3.554-1.893-3.5-3.159-7.456z"
          style="fill:#ecf2f7" transform="translate(-461.02 -651.213)scale(1.16894)"/>
    <path d="M660.478 895.48c5.197 7.49 4.645 9.367 6.982 23.017.371 2.167-.839 2.056-.994 2.435-30.802-2.039-29.63 16.84-33.575 14.193-.525-.352-16.253-60.939-1.063-39.88 5.565 7.715 19.554 11.657 28.65.235"
          style="fill:#f2f6fa" transform="translate(-461.02 -651.213)scale(1.16894)"/>
    <path d="M664.38 883.509c7.024 6.31 14.374 35.724 15.185 38.97.412 1.648.23 1.582-.234 3.231-8.445-4.254-8.627-3.656-12.865-4.778.155-.379 1.365-.268.994-2.435-2.337-13.65-1.785-15.527-6.982-23.017 2.684-4.844 3.829-6.334 3.902-11.971"
          style="fill:#c0cdd9" transform="translate(-461.02 -651.213)scale(1.16894)"/>
    <path d="M664.38 883.509c-.03-.312-.683-7.173 1.651-3.559 13.814 21.39 17.203 42.631 17.831 46.571.679 4.256-2.907.606-4.531-.811.464-1.649.646-1.583.234-3.231-.811-3.246-8.161-32.66-15.185-38.97"
          style="fill:#f4f8fa" transform="translate(-461.02 -651.213)scale(1.16894)"/>
    <path d="M652.869 868.098c-.364.672-1.45.73-1.813 1.402-.348.642 2.458.269 1.458 9.002-1.291 11.267-8.476 13.074-13.989 11.9-.351-.075-.717-.514-1.025-.33-.667.4-.792 1.419-1.459 1.819-13.2-20.118 4.07-32.917 16.828-23.793"
          style="fill:#f3f7fa" transform="translate(-461.02 -651.213)scale(1.16894)"/>
    <path d="M652.869 868.098c16.621 16.387-2.402 40.932-16.828 23.793.667-.4.792-1.419 1.459-1.819.308-.184.674.255 1.025.33 5.513 1.174 12.698-.633 13.989-11.9 1-8.733-1.806-8.36-1.458-9.002.363-.672 1.449-.73 1.813-1.402"
          style="fill:#bbcad6" transform="translate(-461.02 -651.213)scale(1.16894)"/>
    <path d="M630.549 834.58c2.017 3.618 6.874 4.9 11.733 18.982.171.494 1.654 4.792 2.237 6.138-23.372 1.535-15.3 25.912-21.771 21.414-1.422-.989-11.838-22.536-9.814-27.447 3.688-8.95 15.935-17.864 17.615-19.087"
          style="fill:#f2f6fa" transform="translate(-461.02 -651.213)scale(1.16894)"/>
    <path d="M646.827 830.06c-2.276 4.222-.283 4.307 1.642 9.451 6.666 17.808 6.678 21.4 6.684 23.342-6.251-3.324-6.442-2.592-10.634-3.153-.583-1.346-2.066-5.644-2.237-6.138-4.859-14.082-9.716-15.364-11.733-18.982 11.169-7.5 15.111-5.201 16.278-4.52"
          style="fill:#bfcdd9" transform="translate(-461.02 -651.213)scale(1.16894)"/>
    <path d="M646.827 830.06c3.445 4.374 6.578 12.706 12.581 34.446 1.425 5.158-4.021-1.373-4.255-1.653-.006-1.942-.018-5.534-6.684-23.342-1.925-5.144-3.918-5.229-1.642-9.451"
          style="fill:#f0f5f9" transform="translate(-461.02 -651.213)scale(1.16894)"/>
    <path d="M490.58 942.039c43.31 8.425 60.463-4.594 69.879-3.352 1.492.196 1.956 4.205-.931 4.913-45.22 11.093-76.824 5.296-71.152-1.198.118-.135.163-.027 2.204-.363"
          style="fill:#95a7b7" transform="translate(-461.02 -651.213)scale(1.16894)"/>
    <path d="M530.941 923.039c10.43 6.939 14.635 15.043 26.302 10.001.272-.117 7.446-3.218 3.367 1.548-1.182 1.381-38.067 7.618-39.143 4.929-1.404-3.51-1.251-3.51-3.176-6.795 4.429-6.865 7.729-3.141 12.65-9.683"
          style="fill:#91a4b3" transform="translate(-461.02 -651.213)scale(1.16894)"/>
    <path d="M519.437 918.849c1.893.441 6.059.818 11.504 4.19-4.921 6.542-8.221 2.818-12.65 9.683-3.647-3.897-4.75-4.756-10.816-7.072.305-.123.651.364.956.241.465-.187.655-.775 1.069-1.057 1.275-.867 5.247-3.111 6.011-3.312 2.353-.619 1.978-1.173 3.926-2.673"
          style="fill:#c3d0da" transform="translate(-461.02 -651.213)scale(1.16894)"/>
    <path d="M519.437 918.849c-1.948 1.5-1.573 2.054-3.926 2.673-.764.201-4.736 2.445-6.011 3.312-.414.282-.604.87-1.069 1.057-.305.123-.651-.364-.956-.241l-4.836-.505-1.442-.783c8.235-5.573 8.368-6.142 18.24-5.513"
          style="fill:#eef2f6" transform="translate(-461.02 -651.213)scale(1.16894)"/>
    <path d="m501.197 924.362 1.442.783c-.473.027-.666.822-1.139.848-2.231.126-.401-1.541-.303-1.631"
          style="fill:#79839a" transform="translate(-461.02 -651.213)scale(1.16894)"/>
    <path d="M513.928 932.173c6.305 6.381 3.959 8.548 3.714 8.628-5.106 1.66-24.215-2.526-26.282-2.978 1.952-1.127 2.073-1.098 2.591-3.221.172-.705 1.299-2.583 1.435-2.635.703-.27 11.696 2.813 18.542.206"
          style="fill:#b2c1ce" transform="translate(-461.02 -651.213)scale(1.16894)"/>
    <path d="M513.928 932.173c-6.846 2.607-17.839-.476-18.542-.206-.136.052-1.263 1.93-1.435 2.635-.518 2.123-.639 2.094-2.591 3.221-4.482-4.883 7.851-17.72 22.568-5.65"
          style="fill:#f4f7fa" transform="translate(-461.02 -651.213)scale(1.16894)"/>
    <path d="M537.187 884.255c3.238 2.655 7.153 4.125 5.637 21.273-.983 11.114-3.775 15.212-4.538 16.333-21.513-15.509-27.3-4.202-29.293-9.445-.161-.422 1.533-18.993 2.121-21.085 1.486-5.279 12.075 12.86 26.073-7.076"
          style="fill:#f3f7fa" transform="translate(-461.02 -651.213)scale(1.16894)"/>
    <path d="M550.484 881.342c1.842 3.176 4.136 2.465 6.908 23.167.281 2.096.014 3.637.959 7.991.285 1.314-.123 2.24 1.149 1.695.496-.213.971-.474 1.467-.687-.093 1.294.513 10.06-4.562 13.863-8.658 6.487-18.075-5.471-18.119-5.51.763-1.121 3.555-5.219 4.538-16.333 1.516-17.148-2.399-18.618-5.637-21.273 1.462-1.944 1.646-2.005 13.297-2.913"
          style="fill:#bfcdd8" transform="translate(-461.02 -651.213)scale(1.16894)"/>
    <path d="M557.502 917.5c.604 14.041-14.782 9.151-11.235-1.069 1.502-4.328 8.162-8.191 11.235 1.069"
          style="fill:#142547" transform="translate(-461.02 -651.213)scale(1.16894)"/>
    <path d="M550.484 881.342c1.743.066 4.284-1.374 6.305 5.059 3.596 11.451 4.096 24.915 4.178 27.107-.496.213-.971.474-1.467.687-1.272.545-.864-.381-1.149-1.695-.945-4.354-.678-5.895-.959-7.991-2.772-20.702-5.066-19.991-6.908-23.167"
          style="fill:#eef3f7" transform="translate(-461.02 -651.213)scale(1.16894)"/>
    <path d="M554.652 919.511c-1.968 8.533-8.566.345-4.808-3.696 4.092-4.4 4.766 3.213 4.808 3.696" style="fill:#9dafc0"
          transform="translate(-461.02 -651.213)scale(1.16894)"/>
    <path d="M531.964 861.173c-.284.669-1.448.657-1.732 1.327-.185.438 3.084 14.901-8.77 17.807-3.666.899-8.206-1.58-9.528-1.909-.097-1.26-.801-10.386 1.97-15.683 6.853-13.1 17.051-2.583 18.06-1.542"
          style="fill:#f3f8fa" transform="translate(-461.02 -651.213)scale(1.16894)"/>
    <path d="M531.964 861.173c13.027 19.505-14.412 40.022-20.03 17.225 1.322.329 5.862 2.808 9.528 1.909 11.854-2.906 8.585-17.369 8.77-17.807.284-.67 1.448-.658 1.732-1.327"
          style="fill:#bacad7" transform="translate(-461.02 -651.213)scale(1.16894)"/>
    <path d="M556.848 847.115c-.696 1.769-8.988 22.845-14.348 18.937-1.262-.92-1.492-.671-2.394.611-.179.254.533.609.354.863-1.155-3.623-1.141-3.602-1.247-3.913-4.14-12.06-13.393-11.314-13.705-13.116-.266-1.538 13.478-28.912 15.768-23.875 4.64 10.202 4.138 11.488 15.572 20.493"
          style="fill:#f3f7fb" transform="translate(-461.02 -651.213)scale(1.16894)"/>
    <path d="M556.848 847.115c6.704 2.925 6.554 3.196 14.769 4.886-3.83 3.532-9.84 13.421-15.544 19.242-.74.755-.2.859.722 2.748-3.715 1.771-15.758-5.889-16.335-6.465.179-.254-.533-.609-.354-.863.902-1.282 1.132-1.531 2.394-.611 5.36 3.908 13.652-17.168 14.348-18.937"
          style="fill:#becbd7" transform="translate(-461.02 -651.213)scale(1.16894)"/>
    <path d="M571.617 852.001c.246.051.508-.075.754-.024 3.369.699-10.414 17.564-15.576 22.014-.922-1.889-1.462-1.993-.722-2.748 5.704-5.821 11.714-15.71 15.544-19.242"
          style="fill:#ecf2f6" transform="translate(-461.02 -651.213)scale(1.16894)"/>
    <path d="M609.48 824.851c-.643 3.564-1.731 2.815-5.588 6.071-15.029 12.686-21.296 11.833-36.392 8.075-1.484-.369-2.093.703-2.157.725-1.331-.963-10.966-7.931-15.545-13.42-1.942-2.329 1.559-1.164 59.682-1.451"
          style="fill:#f1f5f9" transform="translate(-461.02 -651.213)scale(1.16894)"/>
    <path d="M609.48 824.851c16.505.081 16.726-1.081 17.661-.022 1.059 1.199-.28.954-3.759 2.403-15.535 6.469-17.509 18.887-20.959 20.019-18.937 6.217-34.667-5.701-37.08-7.529.064-.022.673-1.094 2.157-.725 15.096 3.758 21.363 4.611 36.392-8.075 3.857-3.256 4.945-2.507 5.588-6.071"
          style="fill:#bbc9d6" transform="translate(-461.02 -651.213)scale(1.16894)"/>
    <path d="M624.247 834.301c-10.222 9.56-10.69 9.874-11.467 9.004-1.731-1.94 11.545-11.759 11.987-10.894.071.14-.039.14-.52 1.89"
          style="fill:#465674" transform="translate(-461.02 -651.213)scale(1.16894)"/>
    <path d="M655.221 677.421c5.06-.056 12.187.301 13.245.354 12.255 9.901 7.615 12.592 9.531 19.725.255.952.278.828.526 1.565-10.377 1.169-10.979.654-11.691.047-13.605-11.613-24.332-6.823-18.677-11.92 3.87-3.487 6.629-8.911 7.066-9.771"
          style="fill:#ef9029" transform="translate(-461.02 -651.213)scale(1.16894)"/>
    <path d="M686.411 817.15c2.85-.689 4.569-1.509 3.852 1.313-.486 1.911-1.262 4.322-3.162 6.69-1.607 2.002-6.033 7.518-31.616 5.492-2.818-.223-4.61-5.091-3.698-5.862 7.393-6.253 4.89-8.164 5.676-8.351 3.631-.868 4.503 5.817 28.948.718"
          style="fill:#ed9a30" transform="translate(-461.02 -651.213)scale(1.16894)"/>
    <path d="M668.466 677.775c6.69-2.376 19.423.726 21.179 14.709 1.111 8.847-1.753 7.86-2.161 8.064-4.496-1.107-4.414-1.185-8.961-1.483-.248-.737-.271-.613-.526-1.565-1.916-7.133 2.724-9.824-9.531-19.725"
          style="fill:#faca29" transform="translate(-461.02 -651.213)scale(1.16894)"/>
    <path d="M655.221 677.421c2.121-4.674 3.235-4.519 17.279-3.916 4.588.197 13.668-.299 18.751 9.12 2.682 4.971 2.948 20.52.311 19.641-.336-.112-.302-.127-4.078-1.718.408-.204 3.272.783 2.161-8.064-1.756-13.983-14.489-17.085-21.179-14.709-1.058-.053-8.185-.41-13.245-.354"
          style="fill:#f8e67e" transform="translate(-461.02 -651.213)scale(1.16894)"/>
    <path d="M634.51 771.04c-15.311 1.523-16.684 1.949-18.077 2.381-3.554-13.889-5.017-14.517-10.926-14.101-6.281.442-53.213-.801-54.842.41-1.594 1.184 8.969 29.862 11.76 39.803 2.233 5.32 4.475 3.861 14.075 3.872 13.846.015 13.797-.044 14.997-.041 20.452.048 25.891.91 25.087-2.889-.189-.892-1.726-8.148-3.097-10.966 6.797 1.831 1.627 6.433 6.886 11.129 3.013 2.691.291 9.962 9.302 13.406.305.116.284.104 3.836 1.411-4.189 3.341-4.677 1.693-10.014 1.723-5.987.034-8.82.109-24.982.101-46.546-.023-47.556.596-48.674-1.942-1.642-3.726-22.365-67.699-22.565-68.795-.384-2.1 1.067-2.022 25.224-1.964 71.953.175 72.378-.648 74.009.913 1.336 1.279 7.673 23.456 8.001 25.549"
          style="fill:#376dae" transform="translate(-461.02 -651.213)scale(1.16894)"/>
    <path d="M615.62 773.903c-.308-.254-.864.006-1.171-.248-.466-.384-3.143-11.626-5.01-12.019-3.544-.744-5.904-1.642-4.69 1.788 5.223 14.751 4.939 14.841 5.516 16.072l.653 4.991c1.713 3.532 1.699 3.511 1.85 3.815.318.641.383.53.719 1.207 1.371 2.818 2.908 10.074 3.097 10.966.804 3.799-4.635 2.937-25.087 2.889-1.2-.003-1.151.056-14.997.041-9.6-.011-11.842 1.448-14.075-3.872-2.791-9.941-13.354-38.619-11.76-39.803 1.629-1.211 48.561.032 54.842-.41 5.909-.416 7.372.212 10.926 14.101z"
          style="fill:#bad8ec" transform="translate(-461.02 -651.213)scale(1.16894)"/>
    <path d="M609.503 785.246c.105.335.052.337 1.247 4.208.358 1.16 2.978 9.191 3.239 9.99.39 1.195.567 1.709-.697 1.671-1.998-.06-14.887-.447-24.984-.121-1.16.038-3.608-3.432-1.567-7.359 4.28-8.237 9.564-10.229 1.743-15.108-9.677-6.036-9.991-5.722-10.714-7.175-.932-1.871-1.591-3.867-2.471-5.763-2.166-4.666-25.245.621-22.49-3.916.44-.725 12.208.018 42.692-.108 4.493-.018 5.83-1.461 7.296 2.832 5.972 17.48 6.784 18.468 5.244 18.627-4.321.445-4.275-.294-8.596.046-2.205.174-1.67 1.697-.835 2.172.676.384 10.022.036 10.893.004"
          style="fill:#3972b3" transform="translate(-461.02 -651.213)scale(1.16894)"/>
    <path d="M634.51 771.04c-.328-2.093-6.665-24.27-8.001-25.549-1.631-1.561-2.056-.738-74.009-.913-24.157-.058-25.608-.136-25.224 1.964.2 1.096 20.923 65.069 22.565 68.795 1.118 2.538 2.128 1.919 48.674 1.942 16.162.008 18.995-.067 24.982-.101 5.337-.03 5.825 1.618 10.014-1.723 8.392 1.674 8.371 1.428 16.983 1.297 2.488-.037 2.016 3.2-1.029 3.344-.433.02-96.111.082-96.954-.002-6.486-.641-5.845-4.492-19.387-45.468-9.935-30.064-10.124-31.32-7.702-32.297 1.328-.535 100.616-1.342 102.874.453 1.71 1.359 2.025 1.609 9.037 25.756.665 2.293-.571 1.848-2.823 2.502"
          style="fill:#68a4d4" transform="translate(-461.02 -651.213)scale(1.16894)"/>
    <path d="M554.658 765.696c1.415-.008 16.975-.097 17.694.034.598.109.456.325 3.394 6.637.861 1.848 11.955 8.129 12.516 8.465 3.786 2.265.783 3.673-4.173 13.387-.963 1.888-1.61.976-18.583 1.244-1.604.026-2.089.297-2.806-2.052-7.621-24.966-7.916-24.864-8.529-27.048z"
          style="fill:#3c76b6" transform="translate(-461.02 -651.213)scale(1.16894)"/>
    <path d="M577.307 753.643c4.731-1.501 16.661-.829 17.111-.105.767 1.234-.316 2.346-18.089 1.589z"
          style="fill:#79a5ce" transform="translate(-461.02 -651.213)scale(1.16894)"/>
    <path d="M609.5 813.524c-4.561-.247-5.283.423-5.276-.971.007-1.306.571-1.723 16.291-1.128 1.761.066 2.412.925.908 1.939-.398.267-9.207.165-11.923.16"
          style="fill:#c3e0ed" transform="translate(-461.02 -651.213)scale(1.16894)"/>
    <path d="M607.502 807.322c12.877-.005 13.428.127 13.304 1.189-.288 2.462-30.551.177-13.304-1.189"
          style="fill:#d2e8f5" transform="translate(-461.02 -651.213)scale(1.16894)"/>
    <path d="m572.98 752.812.703 1.492c-5.59 2.131-12.857.546-13.105.158-1.407-2.206 10.275-1.634 12.402-1.65"
          style="fill:#6c9ac9" transform="translate(-461.02 -651.213)scale(1.16894)"/>
    <path d="M555.628 800.403c-.293-1.303-.818-2.706-.905-2.936-3.151-8.407-3.312-12.274-4.972-13.457-.112-.079-1.118-.797-.908-1.45 1.436-4.467-6.685-17.593-3.341-17.674 1.92-.046 9.531 28.013 11.226 32.373.57 1.465 3.373 5.09-1.1 3.144"
          style="fill:#8eb7de" transform="translate(-461.02 -651.213)scale(1.16894)"/>
    <path d="M564.351 798.454c.289-.069.003-.771.292-.841 1.311-.316 1.33.095 16.856.019.357-.002 3.966-.02 3.313 2.987-.309 1.426-.95.762-18.235.495-1.352-.021-1.039-.545-2.226-2.66"
          style="fill:#396ead" transform="translate(-461.02 -651.213)scale(1.16894)"/>
    <path d="M615.62 773.903c-3.349 2.203-3.145 2.325-5.355 5.593-.577-1.231-.293-1.321-5.516-16.072-1.214-3.43 1.146-2.532 4.69-1.788 1.867.393 4.544 11.635 5.01 12.019.307.254.863-.006 1.171.248"
          style="fill:#3972b5" transform="translate(-461.02 -651.213)scale(1.16894)"/>
    <path d="m533.451 748.093 1.216 2.464c.354 1.515.285 1.454.693 2.969.727 2.698-1.471 2.658-2.044 1.087-1.645-4.511-1.577-4.836.135-6.52"
          style="fill:#c9e0ee" transform="translate(-461.02 -651.213)scale(1.16894)"/>
    <path d="M533.451 748.093c.394-.058 4.12-.606 4.97-.26 4.18 1.698-3.386 2.676-3.754 2.724z" style="fill:#9fbdd6"
          transform="translate(-461.02 -651.213)scale(1.16894)"/>
    <path d="M572.98 752.812c2.163-1.382 2.454-.947 4.327.831l-.978 1.484c-1.461-.003-1.507.143-2.646-.823z"
          style="fill:#c9e5f5" transform="translate(-461.02 -651.213)scale(1.16894)"/>
    <path d="M601.383 756.367c-2.243-.422-2.47-.738-2.16-2.957.04-.291 2.664-2.075 2.16 2.957" style="fill:#669ed1"
          transform="translate(-461.02 -651.213)scale(1.16894)"/>
    <path d="M599.512 807.375c3.323 3.298-1.62 1.844-1.631 1.126-.002-.158.117-.08 1.631-1.126" style="fill:#b7d7ed"
          transform="translate(-461.02 -651.213)scale(1.16894)"/>
    <path d="M600.491 813.426c-4.672-2.397.847-1.886.903-1.825.929 1.004.151 1.034-.903 1.825" style="fill:#b1d1e3"
          transform="translate(-461.02 -651.213)scale(1.16894)"/>
    <path d="M701.681 739.207c1.157 1.077 6.082 5.66 11.241 16.248 1.747 3.584-3.438.04-5.516-.682-6.328-2.2-16.461-2.282-17.906-2.294-.652-7.173-.103-7.67 4.128-9.668 6.036-2.85 6.377-1.591 6.872-1.874.606-.346.574-1.383 1.181-1.73"
          style="fill:#f2f7fa" transform="translate(-461.02 -651.213)scale(1.16894)"/>
    <path d="M701.681 739.207c-.607.347-.575 1.384-1.181 1.73-.495.283-.836-.976-6.872 1.874-4.231 1.998-4.78 2.495-4.128 9.668-4.208.429-10.937 1.854-10.184-1.033 1.152-4.414 14.919-16.939 22.365-12.239"
          style="fill:#c2cfda" transform="translate(-461.02 -651.213)scale(1.16894)"/>
    <path d="M721.485 776.502c-2.178 2.671-9.993 12.253-39.594 16.978-.726-30.709-23.394-29.283-15.27-31.72 46.779-14.033 53.635 10.367 54.864 14.742"
          style="fill:#f4f8fb" transform="translate(-461.02 -651.213)scale(1.16894)"/>
    <path d="M721.485 776.502c3.937 30.59-45.329 37.745-46.051 37.114-.362-.318-.625-.548 2.591-5.437 2.551-6.383 3.095-6.249 3.866-14.699 29.601-4.725 37.416-14.307 39.594-16.978"
          style="fill:#c6d2dc" transform="translate(-461.02 -651.213)scale(1.16894)"/>
    <path d="M658.338 715.418c19.486-27.204 49.186-.338 44.218 16.1-.713 2.359-3.748.756-8.106 1.767-5.298 1.229-11.837 5.814-12.776 6.472-7.051-2.282-16.454-3.269-20.988-16.323-2.163-6.229-.704-6.418-.921-6.934-.232-.55-1.196-.532-1.427-1.082"
          style="fill:#f3f7fa" transform="translate(-461.02 -651.213)scale(1.16894)"/>
    <path d="M658.338 715.418c.231.55 1.195.532 1.427 1.082.217.516-1.242.705.921 6.934 4.534 13.054 13.937 14.041 20.988 16.323-5.34 5.6-4.893 5.829-8.411 12.593-2.511 4.83-26.341-13.886-16.281-34.624.389-.803.966-1.505 1.356-2.308"
          style="fill:#becdd9" transform="translate(-461.02 -651.213)scale(1.16894)"/>
    <path d="M669.303 775.598c-2.329-4.025-2.592-5.594-7.564-8.472-6.207-3.592 6.122-4.356 13.469 9.54 10.989 20.783-4.615 41.449-9.58 36.641-2.122-2.054 14.941-7.345 3.675-37.709"
          style="fill:#aab9c6" transform="translate(-461.02 -651.213)scale(1.16894)"/>
    <path d="M627.574 805.469c-.082-1.596-.764-2.372.911-2.347 1.27.02 1.676 1.287 1.731 1.459.068.212.637 6.421-2.642.888"
          style="fill:#b9c5d6" transform="translate(-461.02 -651.213)scale(1.16894)"/>
    <path d="M667.223 789.517c-3.574 5.303-9.082 12.464-18.52 12.923-.456-3.497-.462-3.405-.91-6.984-.76-6.088-2.309-5.797-2.064-11.947.284-7.1-3.279-9.436-.08-10.642 15.861-5.981 19.69 1.782 21.574 16.65"
          style="fill:#f3f7fa" transform="translate(-461.02 -651.213)scale(1.16894)"/>
    <path d="M667.223 789.517c.599 8.282 2.094 19.012-15.701 22.173-2.2.391-1.889-.824-2.819-9.25 9.438-.459 14.946-7.62 18.52-12.923"
          style="fill:#bfcdd8" transform="translate(-461.02 -651.213)scale(1.16894)"/>
    <path d="M641.378 780.511c-.869.564-2.573 1.67-12.615 2.94-.048-.579-.549-6.595 1.71-7.056 6.881-1.405 8.961-2.643 10.905 4.116"
          style="fill:#dce5ec" transform="translate(-461.02 -651.213)scale(1.16894)"/>
    <path d="M636.512 804.201c5.537-.005 7.562-1.153 7.944 4.299.468 6.699-10.087 2.557-10.619-.082-.648-3.212-.579-4.174 2.675-4.217"
          style="fill:#acbdca" transform="translate(-461.02 -651.213)scale(1.16894)"/>
    <path d="M642.842 794.448c-.205.121-.338 1.297-2.249 1.328-7.757.125-7.751.618-10.649-.338.525-6.125 3.449-4.066 6.51-4.337 4.146-.367 4.754-.409 6.388 3.347"
          style="fill:#cbd9e5" transform="translate(-461.02 -651.213)scale(1.16894)"/>
    <path d="M642.842 794.448c.867 4.582.383 5.797-4.344 5.794-5.792-.003-7.402.854-8.554-4.804 2.898.956 2.892.463 10.649.338 1.911-.031 2.044-1.207 2.249-1.328"
          style="fill:#a8bbca" transform="translate(-461.02 -651.213)scale(1.16894)"/>
    <path d="M641.378 780.511c.035.471 1.261 4.966-1.961 5.566-11.234 2.09-10.4-1.513-10.654-2.626 10.042-1.27 11.746-2.376 12.615-2.94"
          style="fill:#adbdcb" transform="translate(-461.02 -651.213)scale(1.16894)"/>
    <path d="M616.031 780.287c3.898 3.185 4.335 2.758 9.122 1.189.405 3.536 1.896 5.462-1.655 5.153-7.667-.668-8.557-1.942-7.467-6.342"
          style="fill:#b3c3d1" transform="translate(-461.02 -651.213)scale(1.16894)"/>
    <path d="M616.031 780.287c.954-1.043.581-2.038 5.464-2.818 5.442-.87 3.643 1.998 3.658 4.007-4.787 1.569-5.224 1.996-9.122-1.189"
          style="fill:#dfe8ef" transform="translate(-461.02 -651.213)scale(1.16894)"/>
    <path d="M626.658 793.507c.025.369 1.521 7.711-3.105 2.93-1.742-1.8-1.482-4.209-.882-4.769 2.867-2.68 3.903 1.499 3.987 1.839"
          style="fill:#afbecf" transform="translate(-461.02 -651.213)scale(1.16894)"/>
    <path d="M439.517 757.918c-3.028-.312-4.972-.035-3.419-2.599 1.781-2.94.782-9.539 4.574-12.603.972-.785 7.052 5.599 10.752 3.563 5.477-3.014-5.742.335-7.111-5.759-.91-4.048 6.776-.531 11.009-3.501 4.228-2.967.84 7.602-2.305 12.168-5.907 8.575-12.617 8.632-13.5 8.731"
          style="fill:#97a9b9" transform="translate(-461.02 -651.213)scale(1.16894)"/>
    <path d="M400.138 709.396c1.158.202 15.139 2.971 16.485 3.112-1.254 9.183-5.126 8.843-12.842 3.571-4.524-3.091-3.956-4.252-3.643-6.683"
          style="fill:#bacbd5" transform="translate(-461.02 -651.213)scale(1.16894)"/>
    <path d="M421.488 747.542c4.559 1.072 4.493.973 9.058 1.537 4.017.496 2.181 9.088-10.005 6.268-2.339-.541-4.707-8.217.947-7.805"
          style="fill:#a9b9c5" transform="translate(-461.02 -651.213)scale(1.16894)"/>
    <path d="M425.928 734.509c1.43 10.025 7.526 6.381 7.518 8.99-.006 1.782-15.742 2.419-14.131-6.026.956-5.009 5.792-8.675 6.613-2.964"
          style="fill:#aabbc8" transform="translate(-461.02 -651.213)scale(1.16894)"/>
    <path d="M419.549 715.504c9.607 2.172 9.588 2.193 10.804 2.956-.177.501-1.816 5.134-2.896 5.982-1.311 1.029-8.96-2.109-9.7-2.412-2.305-.945-.069-1.611 1.792-6.526"
          style="fill:#abbcc9" transform="translate(-461.02 -651.213)scale(1.16894)"/>
    <path d="M443.652 724.396c5.81 8.122-11.407 20.261-12.596 9.091 1.213.274 2.649 2.251 12.596-9.091"
          style="fill:#b2c0cb" transform="translate(-461.02 -651.213)scale(1.16894)"/>
    <path d="M443.652 724.396c-9.947 11.342-11.383 9.365-12.596 9.091.856-2.54.814-2.539.925-2.743 7.167-13.189 10.582-7.45 11.671-6.348"
          style="fill:#e3ecf1" transform="translate(-461.02 -651.213)scale(1.16894)"/>
    <path d="M400.138 709.396c.152-.228.765-2.619 4.389-2.33 11.24.896 11.9 4.399 12.096 5.442-1.346-.141-15.327-2.91-16.485-3.112"
          style="fill:#e7f0f5" transform="translate(-461.02 -651.213)scale(1.16894)"/>
    <path d="M414.523 729.516c3.436-4.005 8.491-1.101 5.728.627-6.407 4.006-2.53 9.997-5.554 8.03-2.972-1.933-.44-8.018-.174-8.657"
          style="fill:#c5d3dd" transform="translate(-461.02 -651.213)scale(1.16894)"/>
    <path d="M419.549 715.504c.318-3.549.084-3.571.253-3.827.216-.331 11.027-.07 10.551 6.783-1.216-.763-1.197-.784-10.804-2.956"
          style="fill:#dde8ef" transform="translate(-461.02 -651.213)scale(1.16894)"/>
    <path d="M415.785 747.572c-1.379 12.035-3.815-.752-3.843-1.07-.029-.317-.378-4.203 2.577-3.04 2.381.937 1.78 1.588 1.266 4.11"
          style="fill:#c9d5df" transform="translate(-461.02 -651.213)scale(1.16894)"/>
    <path d="M452.451 720.574c11.579 9.586-4.599 17.318-4.177 11.932.516-6.608 2.051-7.663-3.23-11.764-1.277-.992-1.155-1.895.513-1.919 3.207-.047 6.382 1.502 6.894 1.751"
          style="fill:#bdccd7" transform="translate(-461.02 -651.213)scale(1.16894)"/>
    <path d="M440.235 716.267c-3.472 1.587-5.777 3.046-5.516.232.26-2.804 6.208-1.73 6.188-.999-.009.34-.663.427-.672.767"
          style="fill:#b1c1d3" transform="translate(-461.02 -651.213)scale(1.16894)"/>
    <path d="M461.747 725.412c-1.345-3.095-1.058-3.166-2.423-4.814-5.483-6.619 10.984-1.352 9.339 18.91-2.001 24.644-27.518 31.087-27.128 24.003.076-1.372 27.611-4.431 20.212-38.099"
          style="fill:#aab9c7" transform="translate(-461.02 -651.213)scale(1.16894)"/>
    <path d="M467.508 753.504c9.76-21.272-1.19-31.456-.003-33 .503-.653 6.511 1.641 7.057 1.849 33.391 12.745 26.512 34.895 25.855 40.12-11.06 1.966-30.469-7.748-32.909-8.969"
          style="fill:#f3f7fa" transform="translate(-461.02 -651.213)scale(1.16894)"/>
    <path d="M467.508 753.504c2.44 1.221 21.849 10.935 32.909 8.969-7.296 26.601-40.286 12.105-49.795 7.803-4.722-2.136 1.823-2.833 1.86-2.842 8.936-4.421 9.36-5.139 15.026-13.93"
          style="fill:#c4d1db" transform="translate(-461.02 -651.213)scale(1.16894)"/>
    <path d="M510.499 727.385c8.909 7.813 9.59 8.309 9.444 10.178-.03.382-.814.583-.668.937.262.635 1.332.672 1.594 1.307-1.362 1.749-1.337 1.722-1.984 3.778.557 6.754 1.233 6.509 3.344 12.997.891 2.74-11.654 12.169-12.488 10.829-1.601-2.573 8.997-5.197-6.711-29.621-.033-.051-8.236-7.098 7.469-10.405"
          style="fill:#dae4eb" transform="translate(-461.02 -651.213)scale(1.16894)"/>
    <path d="M510.499 727.385c.892.124 4.078-.091 8.72 3.457 7.771 5.94 1.751 8.864 1.65 8.965-.262-.635-1.332-.672-1.594-1.307-.146-.354.638-.555.668-.937.146-1.869-.535-2.365-9.444-10.178"
          style="fill:#c2cdd8" transform="translate(-461.02 -651.213)scale(1.16894)"/>
    <path d="M512.452 721.918c-2.546-.395-3.981.011-3.056-2.448 6.647-17.673 23.025-17.592 27.078-17.708 3.504-.101.734 1.765-1.636 5.943-10.195 17.97-6.803 24.02-10.111 21.54-3.639-2.728-2.457-4.807-12.275-7.327"
          style="fill:#f3f7fa" transform="translate(-461.02 -651.213)scale(1.16894)"/>
    <path d="M611.876 689.641c-4.61-1.014-12.877 2.333-26.376 2.296-1.36-.003-16.435-.045-17 .128-.685.208-.346 1.677-1.031 1.886-5.194-.62-5.641-.811-7.567-5.614-.454-1.13-2.825-7.045-3.383-14.837-.177-2.478 3.104-1.388 4.024-1.266 27.677 3.671 43.555-.18 50.947-.975 1.462-.157 4.16.431.386 18.382"
          style="fill:#f2f7fa" transform="translate(-461.02 -651.213)scale(1.16894)"/>
    <path d="M628.791 636.505c-.143-6.105 2.656-4.416 8.713-4.634 14.701-.531 15.397-1.148 16.043-.428 1.575 1.756-2.758 2.012-3.05 2.03-10.458.62-11.854 15.178-10.645 24.98 2.112 17.13 10.81 14.337 10.141 17.125-2.336 9.744-20.962 16.9-31.533 17.547-3.246.198-1.91-1.51-1.254-4.651 6.738-3.385 22.485-3.872 18.544-48.008-.36-4.034-3.538-3.209-6.959-3.961"
          style="fill:#c1ceda" transform="translate(-461.02 -651.213)scale(1.16894)"/>
    <path d="M628.791 636.505c3.421.752 6.599-.073 6.959 3.961 3.941 44.136-11.806 44.623-18.544 48.008 2.348-15.799-.947-17.081 2.213-19.085 10.929-6.931 9.954-10.385 9.372-32.884"
          style="fill:#f3f8fb" transform="translate(-461.02 -651.213)scale(1.16894)"/>
    <path d="M539.052 654.518c-.501-12.253-1.08-19.674.366-20.199 7.862-2.858-1.653 25.006 9.222 34.019 3.258 2.7 3.177 2.904 3.648 7.183 1.323 12.031 5.822 18.152.506 14.48-13.164-9.09-13.179-24.741-13.742-35.483"
          style="fill:#f3f8fa" transform="translate(-461.02 -651.213)scale(1.16894)"/>
    <path d="M611.876 689.641c-.392 1.678-.275 4.323-3.411 4.511-24.677 1.479-33.784.326-40.996-.201.685-.209.346-1.678 1.031-1.886.565-.173 15.64-.131 17-.128 13.499.037 21.766-3.31 26.376-2.296"
          style="fill:#c3cfd9" transform="translate(-461.02 -651.213)scale(1.16894)"/>
    <path d="M652.878 656.496c-2.111.292-4.267-.731-6.378-.438-.678.094-1.376 1.375-1.457 1.523-.267.49.376.461.088.991-.132-1.256-.315-2.439-.32-7.063-.015-16.696 12.951-14.288 10.688-10.01-2.595 4.904-3.037 5.661-2.621 14.997"
          style="fill:#eef4f8" transform="translate(-461.02 -651.213)scale(1.16894)"/>
    <path d="M663.182 647.575c.196 1.343 2.033 13.938-2.781 16.741-6.022 3.507-5.622-27.269.886-20.603 1.435 1.47 1.042 1.634 1.895 3.862"
          style="fill:#afbdc8" transform="translate(-461.02 -651.213)scale(1.16894)"/>
    <path d="M652.878 656.496c.024.141.517 6.177 2.683 8.959 1.119 1.438 1.562 2.05-.206 2.734-8.748 3.384-9.154-4.945-10.224-9.617.288-.53-.355-.501-.088-.991.081-.148.779-1.429 1.457-1.523 2.111-.293 4.267.73 6.378.438"
          style="fill:#c2cfd9" transform="translate(-461.02 -651.213)scale(1.16894)"/>
    <path d="M533.707 653.488c.416 7.393 1.875 18.717-2.034 10.926-4.193-8.356 1.756-28.225 2.04-18.984.019.645-.001.597-.006 8.058"
          style="fill:#e7eef3" transform="translate(-461.02 -651.213)scale(1.16894)"/>
    <path d="M588.417 686.114c-16.625 2.667-15.809-2.757-14.983-3.674 3.169-3.513 6.897 5.641 23.167-4.782 2.923-1.873 5.084 1.162 2.514 3.429-4.433 3.91-10.207 4.869-10.698 5.027"
          style="fill:#101f43" transform="translate(-461.02 -651.213)scale(1.16894)"/>
    <path d="M629.106 705.02c7.798 2.526 18.639-.417 15.738 5.653-1.188 2.484-4.586 9.594-6.468 33.812-.291 3.739.817 4.134-1.682 6.944-.507-1.773-2.015-11.242-7.344-13.576-.389-.17-22.888-1.743-24.879-1.882-50.583-3.535-50.978-3.386-55.106-1.831-2.973 1.119-2.929 3.827-16.823 2.983-3.816-.231.847-18.011 8.453-29.29 3.271-4.85 11.132-10.804 13.514-10.881 5.109-.165 2.432 2.606 1.402 7.629-3.811 18.589 7.89 18.846 33.598 19.704 22.129.738 23.03-.902 39.597-19.265"
          style="fill:#f2f7fa" transform="translate(-461.02 -651.213)scale(1.16894)"/>
    <path d="M629.106 705.02c.807-.941 7.717-8.992 11.411-10.482 3.928-1.583 25.499 6.107 20.702 9.584-2.545 1.845-18.107 13.125-14.818 36.389 3.128 22.121 14.585 15.881 15.443 16.522 2.233 1.666-4.865 3.333-6.086 3.935-4.596 2.267-6.554-1.54-13.254-2.496-5.077-.725-4.161-2.232-5.81-7.043 2.499-2.81 1.391-3.205 1.682-6.944 1.882-24.218 5.28-31.328 6.468-33.812 2.901-6.07-7.94-3.127-15.738-5.653"
          style="fill:#beccd9" transform="translate(-461.02 -651.213)scale(1.16894)"/>
    <path d="M633.464 695.563c-.495 2.126-.813 1.878-2.534 3.298-5.045 4.159-11.594 13.304-17.612 18.408-9.997 8.48-50.224 1.542-51.592.831-6.475-3.368-1.639-23.565 2.616-18.446 2.27 2.731-6.002 13.094 18.202 15.443 36.855 3.576 36.146-17.631 50.92-19.534"
          style="fill:#b8c8d5" transform="translate(-461.02 -651.213)scale(1.16894)"/>
    <path d="M585.439 709.929c-.663-.138-6.632-1.38-7.7-3.523-1.167-2.342.96-.881 4.804-.116 8.647 1.722 17.863-.196 18.093-.159 1.736.273 1.136 5.361-15.197 3.798"
          style="fill:#dee6ef" transform="translate(-461.02 -651.213)scale(1.16894)"/>
    <path d="m586.522 703.249-6.9-1.03c-2.035-.52-2.517-2.541-.092-2.261 14.477 1.67 22.666-.779 23.811-.117 1.189.687.486 3.681-16.819 3.408"
          style="fill:#cedbe9" transform="translate(-461.02 -651.213)scale(1.16894)"/>
    <path d="M644.344 763.952c3.884 2.017 7.723 2.705 4.147 3.532-4.425 1.024-5.893 2.378-7.1-1.954-.627-2.251.621-1.855 2.953-1.578"
          style="fill:#d2dce6" transform="translate(-461.02 -651.213)scale(1.16894)"/>
    <path d="M604.396 639.156c8.244-1.833 3.573 3.354 3.242 3.549-4.77 2.813-2.184 4.226-2.105 13.794.058 7.157-6.06 6.037-7.661 4.592-1.511-1.365-1.774-10.646-1.801-11.583-.09-3.178-2.556-2.314-3.451-3.137-3.642-3.349 9.393-6.458 11.776-7.215"
          style="fill:#f0d765" transform="translate(-461.02 -651.213)scale(1.16894)"/>
    <path d="M556.096 655.512c-.101-2.297-1.907-13.582 3.422-14.941 7.861-2.003 7.799 18.918 3.792 21.619-6.208 4.183-7.142-5.895-7.214-6.678"
          style="fill:#f1d767" transform="translate(-461.02 -651.213)scale(1.16894)"/>
    <path d="M561.617 644.336c3.602 8.332.222 16.601-1.984 13.93-2.97-3.598-.084-4.303-1.417-9.761-.102-.418-1.645-6.738 3.401-4.169"
          style="fill:#faf095" transform="translate(-461.02 -651.213)scale(1.16894)"/>
    <path d="M599.056 656.645c-.08-8.42-.02-8.418-.163-9.145-.729-3.699 2.671-4.221 3.519-1 .06.229.265 9.832.195 10.031-.934 2.642-2.406 2.725-3.551.114"
          style="fill:#f8ec92" transform="translate(-461.02 -651.213)scale(1.16894)"/>
    <path d="m607.523 563.386 8.092 1.953c3.152.998-1.672 2.642-4.919 5.388-6.805 5.752-9.634 24.356-9.375 25.834 1.552 8.872 5.056-18.547 15.39-23.655 10.046-4.966 34.268 16.168 38.118 41.576.62 4.092-12.179 2.945-14.189 3.465-14.545 3.764 25.609.219 22.922 6.591-.953 2.261-133.779 5.592-136.07 2.968-.4-.459-1.773-2.4 6.12-4.526 8.844-2.383 11.093-1.654 9.721-4.093l-2.781.007c-1.467-5.466 4.929-23.742 16.615-33.776.678-.582-.098-.839.45-1.485.172-.202.495-.582 2.75 1.854-.762 10.191-.806 10.123-.823 11.006-.031 1.571 1.836 2.649 2.565-.111 1.835-6.945 1.228-6.986 2.951-14.001 1.087 0 .534 1.118 1.563 1.119.101 0 .242 0 .588-1.118 4.11-13.307 13.195-12.678 29.238-14.327 4.559-.468 5.538-3.525 7.957-3.013 1.924.407 1.756-.202 3.117-1.656"
          style="fill:#f3ac2d" transform="translate(-461.02 -651.213)scale(1.16894)"/>
    <path d="M613.052 575.86c1.113-1.271 2.329-2.297 3.659-2.954 10.046-4.966 34.268 16.168 38.118 41.576.62 4.092-12.179 2.945-14.189 3.465-2.55.66-3.419 1.095-3.132 1.399-.18.205.212.38 1.585.429l.167.006c6.184.712 26.039.202 24.328 4.694a3 3 0 0 1-.257.206c-2.846 1.031-30.995 2.246-60.938 3.016 11.934-1.073 28.583-4.011 29.801-11.757 1.296-8.246-5.505-36.496-19.142-40.08M607.523 563.386l8.092 1.953.05.016c.541.373.842.784.744 1.281-.812.98-3.597 2.301-5.713 4.091-6.658 5.628-9.51 23.557-9.388 25.715-.711-6.864-1.192-15.137.339-21.213 1.849-7.335 5.876-11.843 5.876-11.843"
          style="fill:#f19026" transform="translate(-461.02 -651.213)scale(1.16894)"/>
    <path d="M607.523 563.386c-1.361 1.454-1.193 2.063-3.117 1.656-2.419-.512-3.398 2.545-7.957 3.013-16.043 1.649-25.128 1.02-29.238 14.327-.346 1.118-.487 1.118-.588 1.118-1.029-.001-.476-1.119-1.563-1.119 4.638-14.746 5.171-21.369 42.463-18.995"
          style="fill:#f6dc63" transform="translate(-461.02 -651.213)scale(1.16894)"/>
    <path d="M560.367 585.487c-2.255-2.436-2.578-2.056-2.75-1.854-.548.646.228.903-.45 1.485-11.686 10.034-18.082 28.31-16.615 33.776-.677.042-1.34.227-2.017.269-5.406.338 5.221-29.603 21.026-40.545 2.677-1.852 1.046 5.398.806 6.869"
          style="fill:#f5e06f" transform="translate(-461.02 -651.213)scale(1.16894)"/>
    <path d="M591.333 592.657c3.676 4.277 3.471 5.27-.355 9.295-.476.501-7.302 7.683-7.835 3.627-.461-3.513 8.474-6.665 5.261-9.989-4.076-4.217-5.241-3.907-4.577-6.023.624-1.984 2.527-1.361 2.758-1.285.903.295.782.459 4.748 4.375"
          style="fill:#1a223d" transform="translate(-461.02 -651.213)scale(1.16894)"/>
    <path d="M572.551 590.551c2.07-1.827 1.924-2.031 2.886-2.27 6.497-1.618-2.265 6.996-2.717 7.44-3.582 3.522 4.914 6.221 4.532 9.732-.547 5.019-10.191-4.815-10.576-6.993-.275-1.551 5.327-7.343 5.875-7.909"
          style="fill:#1c233d" transform="translate(-461.02 -651.213)scale(1.16894)"/>
    <path d="M546.828 618.792c23.6-8.126 81.475-2.961 81.596-.257.105 2.359-9.86.829-11.913.71-65.509-3.807-69.797 5.12-69.683-.453"
          style="fill:#202535" transform="translate(-461.02 -651.213)scale(1.16894)"/></svg>
