<?xml version="1.0" encoding="UTF-8" standalone="no"?><!DOCTYPE svg PUBLIC "-//W3C//DTD SVG 1.1//EN" "http://www.w3.org/Graphics/SVG/1.1/DTD/svg11.dtd"><svg width="100%" height="100%" viewBox="0 0 250 347" version="1.1" xmlns="http://www.w3.org/2000/svg" xmlns:xlink="http://www.w3.org/1999/xlink" xml:space="preserve" xmlns:serif="http://www.serif.com/" style="fill-rule:evenodd;clip-rule:evenodd;stroke-linejoin:round;stroke-miterlimit:2;"><path d="M187,34l47,-0c8.837,0 16,7.163 16,16l0,281c0,8.837 -7.163,16 -16,16l-218,0c-8.837,-0 -16,-7.163 -16,-16l0,-281c-0,-8.837 7.163,-16 16,-16l47,0l0,-0.442c0,-5.827 4.731,-10.558 10.558,-10.558l22.264,0c3.157,-13.186 15.03,-23 29.178,-23c14.148,0 26.021,9.814 29.177,23l22.265,0c5.827,0 10.558,4.731 10.558,10.558l0,0.442Zm-59.935,-0c1.446,-0.749 2.435,-2.26 2.435,-4c0,-2.484 -2.016,-4.5 -4.5,-4.5c-2.484,0 -4.5,2.016 -4.5,4.5c0,1.739 0.988,3.25 2.435,4l4.13,-0Z" style="fill:#fff;"/><g><path d="M90,228.11l0,111.89l-74,0c-4.971,-0 -9,-4.029 -9,-9l0,-281c-0,-4.971 4.029,-9 9,-9l43,0l0,18l-34,0l-0,263l28,0l0,-57.989c5.371,-18.903 19.439,-32.578 37,-35.901Zm-37,-15.43l0,-111.679l144,0l0,37l-107,0l0,47.647c-7.46,1.76 -13.74,4.616 -19.037,8.083c-8.043,5.265 -13.826,12.051 -17.963,18.949Zm138,-171.679l43,0c4.971,0 9,4.029 9,9l0,81.174l-18,18l0,-90.174l-34,0l0,-18Zm-85,281l119,0l0,-102.174l18,-18l0,129.174c0,4.971 -4.029,9 -9,9l-128,0l0,-18Z" style="fill:#13245c;"/><path d="M148,30l28.442,0c1.964,0 3.558,1.594 3.558,3.558l0,32.884c0,1.964 -1.594,3.558 -3.558,3.558l-102.884,0c-1.964,0 -3.558,-1.594 -3.558,-3.558l0,-32.884c0,-1.964 1.594,-3.558 3.558,-3.558l28.442,0c0,-12.694 10.306,-23 23,-23c12.694,0 23,10.306 23,23Zm-23,-11.5c-6.347,0 -11.5,5.153 -11.5,11.5c0,6.347 5.153,11.5 11.5,11.5c6.347,0 11.5,-5.153 11.5,-11.5c0,-6.347 -5.153,-11.5 -11.5,-11.5Z" style="fill:#13245c;"/><path d="M113.5,217.964c-37.42,-2.639 -51.532,9.384 -60.5,26.246c-0.108,-5.086 6.143,-54.233 60.5,-50.248l0,-18.462l41,30l-41,30l0,-17.536Z" style="fill:#fe6400;"/><g><path d="M232.614,166.742l11.575,11.575l-52.726,52.726l-11.575,-11.575l52.726,-52.726Z" style="fill:#fe6400;"/><path d="M165.039,204.48l11.575,-11.575l26.563,26.563l-11.575,11.575l-26.563,-26.563Z" style="fill:#fe6400;"/></g></g></svg>
